<?xml version="1.0" encoding="UTF-8"?>
<svg style="enableBackground:new 0 0 27 36" version="1.1" viewBox="0 0 27 36" xmlns="http://www.w3.org/2000/svg">
<title>Beer</title>
<g>
<path d="m6.2 27.6c0.3 0 0.5-0.2 0.5-0.5v-15.2c0-0.3-0.2-0.5-0.5-0.5s-0.5 0.2-0.5 0.5v15.1c0 0.3 0.3 0.6 0.5 0.6z"/>
<path d="m11.2 27.6c0.3 0 0.5-0.2 0.5-0.5v-15.2c0-0.3-0.2-0.5-0.5-0.5s-0.5 0.2-0.5 0.5v15.1c0 0.3 0.2 0.6 0.5 0.6z"/>
<path d="m16.1 27.6c0.3 0 0.5-0.2 0.5-0.5v-15.2c0-0.3-0.2-0.5-0.5-0.5s-0.5 0.2-0.5 0.5v15.1c0 0.3 0.3 0.6 0.5 0.6z"/>
<path d="m21.2 11.4v-5.5c0.5-0.4 0.8-1 0.8-1.7 0-1.2-1-2.2-2.2-2.2-0.3 0-0.5 0.1-0.8 0.2 0-1.2-1.1-2.2-2.3-2.2-1 0-1.8 0.6-2.2 1.5-0.6-0.4-1.4-0.4-2 0-0.4-0.9-1.3-1.5-2.3-1.5s-1.8 0.6-2.2 1.5c-0.6-0.4-1.5-0.4-2 0-0.4-0.9-1.3-1.5-2.2-1.5-1.4 0-2.4 1.1-2.4 2.4 0 0.2 0 0.4 0.1 0.6-1 0.7-1.5 1.7-1.5 2.9 0 1.3 0.7 2.4 1.6 3.1v24c0 1.4 1.1 2.6 2.6 2.6h14.4c1.4 0 2.6-1.1 2.6-2.6v-5.8h1.5c2 0 3.6-1.6 3.6-3.6v-12.2h-5.1zm-1 21.6c0 0.9-0.7 1.6-1.6 1.6h-14.4c-0.9 0-1.6-0.7-1.6-1.6v-0.3h17.5v0.3zm-19.2-27.1c0-0.9 0.5-1.8 1.3-2.3l0.4-0.2-0.2-0.4c-0.1-0.2-0.1-0.4-0.1-0.6 0-0.8 0.6-1.4 1.4-1.4s1.4 0.6 1.4 1.4v0.2 0.6h1l0.1-0.4c0-0.4 0.3-0.6 0.7-0.6s0.7 0.3 0.8 0.6l0.1 0.4h1.1l-0.2-0.6v-0.2c0-0.8 0.7-1.4 1.4-1.4 0.8 0 1.4 0.6 1.4 1.4v0.2 0.6h1l0.1-0.4c0.1-0.4 0.4-0.6 0.8-0.6s0.7 0.3 0.8 0.6l0.2 0.4h1l-0.1-0.6v-0.2c0-0.8 0.6-1.4 1.4-1.4s1.4 0.6 1.4 1.4c0 0.2 0 0.4-0.1 0.6l-0.2 0.4 0.9 0.5 0.3-0.4c0.2-0.3 0.6-0.5 0.9-0.5 0.6 0 1.2 0.5 1.2 1.2 0 0.6-0.5 1.1-1.1 1.2h-13.5v0.5c0 1.5-1.2 2.7-2.7 2.7s-2.9-1.2-2.9-2.7zm2.7 3.7c1.9 0 3.4-1.4 3.7-3.1h12.8v25.3h-17.6v-22.4c0.4 0.1 0.7 0.2 1.1 0.2zm21.6 13.9c0 1.4-1.2 2.6-2.6 2.6h-1.5v-13.7h4.1v11.1z"/>
</g>
</svg>
