<?xml version="1.0" standalone="no"?>
<!DOCTYPE svg PUBLIC "-//W3C//DTD SVG 1.1//EN" "http://www.w3.org/Graphics/SVG/1.1/DTD/svg11.dtd" >
<svg xmlns="http://www.w3.org/2000/svg">
<metadata>Generated by IcoMoon</metadata>
<defs>
<g id="arrow" stroke="none" stroke-width="1" fill="none" fill-rule="evenodd">
        <g id="Page-1" transform="translate(0.000000, 1.000000)" fill="#000000" fill-rule="nonzero">
            <path d="M46.8344312,11.5855589 C43.3569563,11.5855589 40.5382234,8.77018929 40.5382234,5.29618393 C40.5382234,1.82217857 43.3569563,-0.993191071 46.8338683,-0.993190913 L58.6348033,-0.99983377 C59.1875281,-1.0001449 59.6356778,-0.551994769 59.6353661,0.000730002334 L59.6287169,11.7912375 C59.6287169,15.2632768 56.8086272,18.0806125 53.3341714,18.0806125 C49.8585788,18.0806125 47.039626,15.2638018 47.039626,11.7912375 C47.039626,11.7214065 47.0408553,11.651628 47.0432992,11.5819044 C46.973764,11.5843363 46.9041405,11.5855589 46.8344312,11.5855589 Z M57.6348018,1.00072944 L46.8344312,1.00680893 C44.4609916,1.00680893 42.5382234,2.92728295 42.5382234,5.29618393 C42.5382234,7.66508491 44.4609916,9.58555893 46.8344312,9.58555893 C47.2104637,9.58555893 47.5872934,9.53187454 47.9665392,9.4272597 C48.7132568,9.22127782 49.4005431,9.90587822 49.1974866,10.6533967 C49.0932396,11.0371649 49.039626,11.4161359 49.039626,11.7912375 C49.039626,14.1588918 50.9628081,16.0806125 53.3341714,16.0806125 C55.7044949,16.0806125 57.6287169,14.1582696 57.628717,11.7906736 L57.6348018,1.00072944 Z" id="Stroke-1"></path>
            <polygon id="Stroke-3" points="8.49820022 51.5012289 7.0846777 50.0863247 46.9940803 10.2158961 48.4076028 11.6308003"></polygon>
            <path d="M21.7443031,45.1532046 L19.3868324,39.2113698 L13.4356879,36.8553773 L2.44537512,47.8349573 L7.99263344,50.0310557 C8.24914586,50.1326062 8.45230936,50.3356171 8.55405243,50.5920532 L10.7528387,56.1339352 L21.7443031,45.1532046 Z M6.85446875,51.7314948 L0.292914617,49.1338478 C-0.37621022,48.8689487 -0.554873107,48.0052292 -0.045753469,47.4966068 L12.4866102,34.9764818 C12.7685734,34.6947939 13.1908865,34.6074372 13.5614646,34.754145 L20.5249971,37.5109307 C20.7815095,37.6124812 20.984673,37.8154921 21.0864161,38.0719282 L23.8458966,45.0269996 C23.9931141,45.3980508 23.9055529,45.8211118 23.6231457,46.1032432 L11.090782,58.6233682 C10.5821885,59.131465 9.71963599,58.9529419 9.45450861,58.2847075 L6.85446875,51.7314948 Z" id="Stroke-5"></path>
            <path d="M10.2411636,9.55116761 L10.2411636,15.0042214 C10.2411636,15.5565062 9.79344839,16.0042214 9.24116364,16.0042214 C8.68887889,16.0042214 8.24116364,15.5565062 8.24116364,15.0042214 L8.24116364,8.53906071 C8.24116364,7.98677596 8.68887889,7.53906071 9.24116364,7.53906071 C32.6869441,7.53906071 51.6948779,26.5284321 51.6948779,49.9522929 C51.6948779,50.5045776 51.2471627,50.9522929 50.6948779,50.9522929 L44.2250597,50.9522929 C43.672775,50.9522929 43.2250597,50.5045776 43.2250597,49.9522929 C43.2250597,49.4000081 43.672775,48.9522929 44.2250597,48.9522929 L49.6827344,48.9522929 C49.159428,27.4274703 31.788079,10.0734312 10.2411636,9.55116761 Z" id="Stroke-7"></path>
        </g>
    </g>
    <g id="chocolates" stroke="none" stroke-width="1" fill="none" fill-rule="evenodd">
        <g id="Page-1" transform="translate(1.000000, 8.961153)" fill="#000000" fill-rule="nonzero">
            <path d="M35.348905,42.1770343 L53.4686562,24.0371383 C57.7447686,19.761026 57.7447686,12.8275997 53.468798,8.5503504 C50.3482837,5.43108774 45.7081696,4.51510967 41.6778557,6.11414979 L40.9402805,4.25512239 C45.7058559,2.3643649 51.1929314,3.44753672 54.8829755,7.13610072 C59.9399955,12.194633 59.9399955,20.3942262 54.8832625,25.4509589 L36.054906,44.3002483 C35.6637078,44.6918813 35.0287819,44.6912096 34.6384132,44.2987497 L30.7309571,40.3703608 L32.1489435,38.9599302 L35.348905,42.1770343 Z" id="Stroke-1"></path>
            <path d="M20.1989665,6.03127634 C23.4701755,-0.329659817 31.2782657,-2.83507697 37.6387326,0.435890667 C43.9993932,3.70695793 46.5038321,11.5149144 43.2330159,17.8750863 L31.064081,41.5752033 C30.8116087,42.0669163 30.2081049,42.2605408 29.7166879,42.0074928 L6.03099724,29.81089 C-0.329663371,26.5398227 -2.83410223,18.7318663 0.436921098,12.3712912 C3.70634886,6.01087805 11.5141254,3.50587916 17.8759092,6.7760118 C18.4310382,7.06191516 18.9622689,7.38866611 19.4701693,7.75430502 C19.6707221,7.16036469 19.9131101,6.58551925 20.1989665,6.03127634 Z M41.4541324,16.9609894 C44.2200915,11.5825225 42.1024247,4.98038484 36.7240652,2.21448101 C31.3459603,-0.551291902 24.7436469,1.56722222 21.9770162,6.94699346 C21.5347728,7.80445435 21.214876,8.72487583 21.0090922,9.70435352 C20.849785,10.4626145 19.925891,10.7594626 19.3547329,10.2359009 C18.6182036,9.56074905 17.8214909,8.9976493 16.9608775,8.55441458 C11.5820704,5.78955939 4.98008485,7.90769971 2.21559743,13.2857913 C-0.550361647,18.6642582 1.56730515,25.2663958 6.94613572,28.0325421 L29.7422029,39.771046 L41.4541324,16.9609894 Z" id="Stroke-3"></path>
            <polygon id="Stroke-5" points="5.88464907 29.3510253 5.27365014 27.4466408 42.5759011 15.4786608 43.1869 17.3830453"></polygon>
            <path d="M25.1335123,22.1098064 C25.312068,22.6387672 25.0229332,23.2114837 24.4912959,23.381905 L21.7966224,24.2457076 C19.8039942,24.8846379 17.6724099,23.788361 17.0338451,21.7968706 C16.3929078,19.8057933 17.4900205,17.6719971 19.4820233,17.0326591 C21.4716349,16.3946961 23.6018447,17.4881172 24.2439922,19.4746551 L25.1335123,22.1098064 Z M22.3468246,20.1077453 L22.3421392,20.0935143 C22.0404741,19.1536083 21.0332057,18.6355766 20.0929561,18.9370648 C19.1531505,19.2386976 18.6355099,20.2454671 18.9379867,21.185116 C19.2396136,22.1257983 20.2450734,22.6429077 21.1860291,22.341193 L22.9137888,21.7873436 L22.3468246,20.1077453 Z" id="Stroke-7"></path>
            <path d="M26.5750331,20.6127262 C27.5153269,20.3112238 28.0328223,19.3047368 27.7311344,18.3647595 C27.4295906,17.4243366 26.4229115,16.9068847 25.4820359,17.2085736 C24.5427631,17.5100354 24.0254176,18.5167694 24.3269819,19.4563612 L24.33158,19.4710767 L24.8470802,21.1666376 L26.5750331,20.6127262 Z M24.8711031,15.3041679 C26.8638001,14.6652156 28.9967332,15.7615831 29.6355401,17.7538268 C30.2747479,19.7454238 29.1780729,21.8783688 27.1856265,22.5172408 L24.4908773,23.3810677 C23.9593437,23.5514557 23.3912233,23.2537203 23.2288597,22.7196809 L22.4201376,20.0596671 C21.7864768,18.0707237 22.882352,15.9424623 24.8711031,15.3041679 Z" id="Stroke-9"></path>
            <path d="M23.3003235,21.9846735 C23.5528516,21.4935035 24.1557381,21.300046 24.6469081,21.5525742 C25.1380781,21.8051023 25.3315356,22.4079888 25.0790074,22.8991588 L21.2469094,30.3526314 C20.9943812,30.8438014 20.3914947,31.0372588 19.9003247,30.7847307 C19.4091547,30.5322025 19.2156973,29.9293161 19.4682254,29.4381461 L23.3003235,21.9846735 Z" id="Stroke-11"></path>
            <path d="M23.7773664,23.3169561 C23.2862338,23.0643552 23.0928656,22.4614401 23.3454665,21.9703075 C23.5980674,21.4791749 24.2009825,21.2858067 24.6921151,21.5384076 L32.1455877,25.3719011 C32.6367203,25.624502 32.8300885,26.2274171 32.5774876,26.7185498 C32.3248867,27.2096824 31.7219716,27.4030505 31.230839,27.1504497 L23.7773664,23.3169561 Z" id="Stroke-13"></path>
            <path d="M50.6463829,15.7136953 C50.6463829,15.0859528 50.1359587,14.5757586 49.5084462,14.5757586 C48.8805891,14.5757586 48.371905,15.0849019 48.371905,15.7136953 C48.371905,16.3424888 48.8805891,16.851632 49.5084462,16.851632 C50.1359587,16.851632 50.6463829,16.3414379 50.6463829,15.7136953 Z M52.6463829,15.7136953 C52.6463829,17.4462092 51.2403264,18.851632 49.5084462,18.851632 C47.7756155,18.851632 46.371905,17.4466546 46.371905,15.7136953 C46.371905,13.9807361 47.7756155,12.5757586 49.5084462,12.5757586 C51.2403264,12.5757586 52.6463829,13.9811814 52.6463829,15.7136953 Z" id="Stroke-15"></path>
            <path d="M44.0203141,21.8306784 C44.0203141,21.2034037 43.5103582,20.6941372 42.8823774,20.6941372 C42.2540522,20.6941372 41.7458362,21.2023531 41.7458362,21.8306784 C41.7458362,22.4594718 42.2545204,22.9686151 42.8823774,22.9686151 C43.5098899,22.9686151 44.0203141,22.4584209 44.0203141,21.8306784 Z M46.0203141,21.8306784 C46.0203141,23.5631923 44.6142577,24.9686151 42.8823774,24.9686151 C41.1495468,24.9686151 39.7458362,23.5636376 39.7458362,21.8306784 C39.7458362,20.0977836 41.1494827,18.6941372 42.8823774,18.6941372 C44.6143224,18.6941372 46.0203141,20.098228 46.0203141,21.8306784 Z" id="Stroke-17"></path>
            <path d="M49.2017405,27.6063172 C49.2017405,26.978107 48.6922439,26.4683805 48.0651993,26.4683805 C47.4368741,26.4683805 46.9272626,26.977992 46.9272626,27.6063172 C46.9272626,28.2346424 47.4368741,28.7442539 48.0651993,28.7442539 C48.6922439,28.7442539 49.2017405,28.2345274 49.2017405,27.6063172 Z M51.2017405,27.6063172 C51.2017405,29.3388951 49.7970153,30.7442539 48.0651993,30.7442539 C46.3323046,30.7442539 44.9272626,29.3392119 44.9272626,27.6063172 C44.9272626,25.8734225 46.3323046,24.4683805 48.0651993,24.4683805 C49.7970153,24.4683805 51.2017405,25.8737393 51.2017405,27.6063172 Z" id="Stroke-19"></path>
            <path d="M39.7451385,30.5363511 C39.7451385,29.9086085 39.2347143,29.3984144 38.6072017,29.3984144 C37.9793447,29.3984144 37.4706605,29.9075576 37.4706605,30.5363511 C37.4706605,31.1651445 37.9793447,31.6742878 38.6072017,31.6742878 C39.2347143,31.6742878 39.7451385,31.1640936 39.7451385,30.5363511 Z M41.7451385,30.5363511 C41.7451385,32.268865 40.339082,33.6742878 38.6072017,33.6742878 C36.8743711,33.6742878 35.4706605,32.2693103 35.4706605,30.5363511 C35.4706605,28.8033918 36.8743711,27.3984144 38.6072017,27.3984144 C40.339082,27.3984144 41.7451385,28.8038372 41.7451385,30.5363511 Z" id="Stroke-21"></path>
        </g>
    </g>
</font></defs></svg>
