<?xml version="1.0" encoding="UTF-8"?>
<svg width="60px" height="60px" viewBox="0 0 60 60" version="1.1" xmlns="http://www.w3.org/2000/svg" xmlns:xlink="http://www.w3.org/1999/xlink">
    <!-- Generator: Sketch 50.2 (55047) - http://www.bohemiancoding.com/sketch -->
    <title>arrow</title>
    <desc>Created with Sketch.</desc>
    <defs></defs>
    <g id="arrow" stroke="none" stroke-width="1" fill="none" fill-rule="evenodd">
        <g id="Page-1" transform="translate(0.000000, 1.000000)" fill="#000000" fill-rule="nonzero">
            <path d="M46.8344312,11.5855589 C43.3569563,11.5855589 40.5382234,8.77018929 40.5382234,5.29618393 C40.5382234,1.82217857 43.3569563,-0.993191071 46.8338683,-0.993190913 L58.6348033,-0.99983377 C59.1875281,-1.0001449 59.6356778,-0.551994769 59.6353661,0.000730002334 L59.6287169,11.7912375 C59.6287169,15.2632768 56.8086272,18.0806125 53.3341714,18.0806125 C49.8585788,18.0806125 47.039626,15.2638018 47.039626,11.7912375 C47.039626,11.7214065 47.0408553,11.651628 47.0432992,11.5819044 C46.973764,11.5843363 46.9041405,11.5855589 46.8344312,11.5855589 Z M57.6348018,1.00072944 L46.8344312,1.00680893 C44.4609916,1.00680893 42.5382234,2.92728295 42.5382234,5.29618393 C42.5382234,7.66508491 44.4609916,9.58555893 46.8344312,9.58555893 C47.2104637,9.58555893 47.5872934,9.53187454 47.9665392,9.4272597 C48.7132568,9.22127782 49.4005431,9.90587822 49.1974866,10.6533967 C49.0932396,11.0371649 49.039626,11.4161359 49.039626,11.7912375 C49.039626,14.1588918 50.9628081,16.0806125 53.3341714,16.0806125 C55.7044949,16.0806125 57.6287169,14.1582696 57.628717,11.7906736 L57.6348018,1.00072944 Z" id="Stroke-1"></path>
            <polygon id="Stroke-3" points="8.49820022 51.5012289 7.0846777 50.0863247 46.9940803 10.2158961 48.4076028 11.6308003"></polygon>
            <path d="M21.7443031,45.1532046 L19.3868324,39.2113698 L13.4356879,36.8553773 L2.44537512,47.8349573 L7.99263344,50.0310557 C8.24914586,50.1326062 8.45230936,50.3356171 8.55405243,50.5920532 L10.7528387,56.1339352 L21.7443031,45.1532046 Z M6.85446875,51.7314948 L0.292914617,49.1338478 C-0.37621022,48.8689487 -0.554873107,48.0052292 -0.045753469,47.4966068 L12.4866102,34.9764818 C12.7685734,34.6947939 13.1908865,34.6074372 13.5614646,34.754145 L20.5249971,37.5109307 C20.7815095,37.6124812 20.984673,37.8154921 21.0864161,38.0719282 L23.8458966,45.0269996 C23.9931141,45.3980508 23.9055529,45.8211118 23.6231457,46.1032432 L11.090782,58.6233682 C10.5821885,59.131465 9.71963599,58.9529419 9.45450861,58.2847075 L6.85446875,51.7314948 Z" id="Stroke-5"></path>
            <path d="M10.2411636,9.55116761 L10.2411636,15.0042214 C10.2411636,15.5565062 9.79344839,16.0042214 9.24116364,16.0042214 C8.68887889,16.0042214 8.24116364,15.5565062 8.24116364,15.0042214 L8.24116364,8.53906071 C8.24116364,7.98677596 8.68887889,7.53906071 9.24116364,7.53906071 C32.6869441,7.53906071 51.6948779,26.5284321 51.6948779,49.9522929 C51.6948779,50.5045776 51.2471627,50.9522929 50.6948779,50.9522929 L44.2250597,50.9522929 C43.672775,50.9522929 43.2250597,50.5045776 43.2250597,49.9522929 C43.2250597,49.4000081 43.672775,48.9522929 44.2250597,48.9522929 L49.6827344,48.9522929 C49.159428,27.4274703 31.788079,10.0734312 10.2411636,9.55116761 Z" id="Stroke-7"></path>
        </g>
    </g>
</svg>