<?xml version="1.0" encoding="UTF-8"?>
<svg width="60px" height="60px" viewBox="0 0 60 60" version="1.1" xmlns="http://www.w3.org/2000/svg" xmlns:xlink="http://www.w3.org/1999/xlink">
    <!-- Generator: Sketch 50.2 (55047) - http://www.bohemiancoding.com/sketch -->
    <title>champagne</title>
    <desc>Created with Sketch.</desc>
    <defs></defs>
    <g id="champagne" stroke="none" stroke-width="1" fill="none" fill-rule="evenodd">
        <g id="Prosecco" transform="translate(18.000000, 0.000000)" fill="#000000" fill-rule="nonzero">
            <path d="M21.4525,51.28125 L3.5375,51.28125 L3.5375,39.405 L21.4525,39.405 L21.4525,51.28125 Z M5.0625,49.75625 L19.9275,49.75625 L19.9275,40.93 L5.0625,40.93 L5.0625,49.75625 Z" id="Shape"></path>
            <path d="M20.99875,59.485 L4,59.485 C2.18625,59.485 0.70375,58.06625 0.6275,56.25625 C0.60125,55.64625 0.56625,54.95 0.5275,54.185 C0.16,46.96625 -0.525,33.5325 3.56,27.67375 C7.685,21.75625 8.75125,14.385 8.72375,11.83 C7.72,11.03 7.13125,9.82625 7.13125,8.53875 L7.13125,4.72875 C7.13125,2.40625 9.02125,0.51625 11.34375,0.51625 L13.64375,0.51625 C15.9675,0.51625 17.85625,2.40625 17.85625,4.72875 L17.85625,8.53875 C17.85625,9.8225 17.27125,11.0225 16.275,11.82125 C16.245,14.37 17.30875,21.75125 21.43875,27.67375 C25.52375,33.5325 24.83875,46.96625 24.47125,54.185 C24.4325,54.95 24.39625,55.64625 24.37125,56.25625 C24.295,58.06625 22.81375,59.485 20.99875,59.485 Z M9.70375,10.66 L10.175,10.66 L10.2325,11.3725 C10.41125,14.06 9.29375,22.11625 4.81125,28.54625 C1.025,33.97625 1.6925,47.07125 2.05,54.10625 C2.08875,54.87625 2.125,55.5775 2.15125,56.19125 C2.19375,57.1825 3.005,57.96 4,57.96 L20.99875,57.96 C21.99375,57.96 22.805,57.18375 22.8475,56.19125 C22.87375,55.5775 22.91,54.87625 22.94875,54.10625 C23.30625,47.07125 23.975,33.97625 20.18875,28.545 C15.70625,22.11625 14.58875,14.06 14.7675,11.37125 L14.7925,10.9925 L15.11,10.78375 C15.87625,10.28125 16.3325,9.44125 16.3325,8.53625 L16.3325,4.72875 C16.3325,3.24625 15.12625,2.04125 13.645,2.04125 L11.345,2.04125 C9.8625,2.04125 8.6575,3.2475 8.6575,4.72875 L8.6575,8.53875 C8.65625,9.37125 9.045,10.15 9.70375,10.66 Z" id="Shape"></path>
            <path d="M5.9075,26.81375 L4.59125,26.0425 C7.83625,20.5025 8.75875,14.2625 8.72375,11.83 C7.72,11.03125 7.13125,9.8275 7.13125,8.53875 L7.13125,4.72875 C7.13125,2.40625 9.02125,0.51625 11.34375,0.51625 L13.64375,0.51625 C15.9675,0.51625 17.85625,2.40625 17.85625,4.72875 L17.85625,8.53875 C17.85625,9.82375 17.27125,11.02375 16.27375,11.8225 C16.23625,14.24875 17.1575,20.49625 20.40625,26.04375 L19.09,26.815 C15.495,20.675 14.615,13.64 14.76625,11.37375 L14.79125,10.995 L15.10875,10.78625 C15.875,10.28375 16.33125,9.44375 16.33125,8.53875 L16.33125,4.72875 C16.33125,3.24625 15.125,2.04125 13.64375,2.04125 L11.34375,2.04125 C9.86125,2.04125 8.65625,3.2475 8.65625,4.72875 L8.65625,8.53875 C8.65625,9.3725 9.04375,10.15 9.70375,10.66125 L10.175,10.66125 L10.2325,11.37375 C10.3825,13.64 9.5025,20.675 5.9075,26.81375 Z" id="Shape"></path>
            <path d="M20.99875,59.485 L4,59.485 C2.18625,59.485 0.70375,58.06625 0.6275,56.25625 C0.60125,55.64625 0.56625,54.95 0.5275,54.185 C0.16,46.96625 -0.525,33.5325 3.56,27.67375 L3.67125,27.50375 L5.0625,25.47375 L5.0625,28.7225 L4.69125,28.7225 C1.04,34.2575 1.69625,47.1475 2.05125,54.10625 C2.09,54.87625 2.12625,55.5775 2.1525,56.19125 C2.195,57.1825 3.00625,57.96 4.00125,57.96 L21,57.96 C21.995,57.96 22.80625,57.18375 22.84875,56.19125 C22.875,55.5775 22.91125,54.87625 22.95,54.10625 C23.305,47.1475 23.96125,34.25625 20.31,28.7225 L19.9275,28.7225 L19.9275,25.44875 L21.43875,27.67 C25.52625,33.5325 24.84125,46.96625 24.47375,54.18375 C24.435,54.94875 24.39875,55.645 24.37375,56.255 C24.295,58.06625 22.81375,59.485 20.99875,59.485 Z" id="Shape"></path>
            <path d="M12.495,31.38625 C11.51875,31.38625 10.5425,31.015 9.79875,30.27125 C8.3125,28.785 8.3125,26.36625 9.79875,24.87875 C11.285,23.3925 13.70375,23.3925 15.19125,24.87875 C16.6775,26.365 16.6775,28.78375 15.19125,30.27125 C14.4475,31.015 13.47125,31.38625 12.495,31.38625 Z M12.495,25.28875 C11.90875,25.28875 11.32375,25.51125 10.8775,25.9575 C9.98625,26.85 9.98625,28.30125 10.8775,29.1925 C11.76875,30.08375 13.22,30.08375 14.1125,29.1925 C15.00375,28.3 15.00375,26.84875 14.1125,25.9575 C13.66625,25.5125 13.08125,25.28875 12.495,25.28875 Z" id="Shape"></path>
            <g id="Group" transform="translate(2.500000, 25.000000)">
                <path d="M8.3,4.485 L1.0375,4.485 L1.0375,2.69875 L1.17125,2.50375 C1.47625,2.0575 1.7775,1.58 2.0925,1.0425 L2.31375,0.665 L8.30125,0.665 L7.875,1.715 C7.6525,2.2625 7.6525,2.89 7.875,3.43625 L8.3,4.485 Z M2.7,2.96 L6.2,2.96 C6.17375,2.70375 6.17375,2.44625 6.2,2.19 L3.1825,2.19 C3.02125,2.46 2.86,2.715 2.7,2.96 Z" id="Shape"></path>
                <path d="M18.9525,4.485 L11.69125,4.485 L12.11625,3.43625 C12.3375,2.88875 12.3375,2.26125 12.11625,1.71375 L11.69125,0.665 L17.6875,0.665 L17.90875,1.04125 C18.2225,1.575 18.52,2.04875 18.82,2.4875 L18.9525,2.6825 L18.9525,4.485 Z M13.79,2.96 L17.3,2.96 C17.14,2.715 16.98,2.46 16.81625,2.19 L13.79,2.19 C13.81625,2.44625 13.81625,2.705 13.79,2.96 Z" id="Shape"></path>
            </g>
        </g>
    </g>
</svg>