<?xml version="1.0" encoding="UTF-8"?>
<svg width="60px" height="60px" viewBox="0 0 60 60" version="1.1" xmlns="http://www.w3.org/2000/svg" xmlns:xlink="http://www.w3.org/1999/xlink">
    <!-- Generator: Sketch 50.2 (55047) - http://www.bohemiancoding.com/sketch -->
    <title>cocktail</title>
    <desc>Created with Sketch.</desc>
    <defs></defs>
    <g id="cocktail" stroke="none" stroke-width="1" fill="none" fill-rule="evenodd">
        <g id="Cocktail" transform="translate(6.000000, 0.000000)" fill="#000000" fill-rule="nonzero">
            <path d="M31.1093333,60 L13.3293333,60 L8.71466667,9.06533333 L35.724,9.06533333 L31.1093333,60 Z M14.684,58.5045693 L29.7546667,58.5045693 L34.0986667,10.5607641 L10.34,10.5607641 L14.684,58.5045693 Z" id="Shape"></path>
            <path d="M9.848,18.868 C4.91066667,18.868 0.893333333,14.8506667 0.893333333,9.91333333 C0.893333333,4.976 4.91066667,0.96 9.848,0.96 C14.7853333,0.96 18.8026667,4.97733333 18.8026667,9.91466667 C18.8026667,14.852 14.7853333,18.868 9.848,18.868 Z M9.848,2.444 C5.72933333,2.444 2.37733333,5.796 2.37733333,9.91466667 C2.37733333,14.0333333 5.72933333,17.3853333 9.848,17.3853333 C13.9666667,17.3853333 17.3186667,14.0333333 17.3186667,9.91466667 C17.3186667,5.796 13.9666667,2.444 9.848,2.444 Z" id="Shape"></path>
            <path d="M46.952,12.844 C46.8546667,12.844 46.7573333,12.8253333 46.664,12.7853333 L24.5853333,3.45333333 C24.2693333,3.32 24.0866667,2.98666667 24.1426667,2.648 C24.1986667,2.30933333 24.48,2.05333333 24.8226667,2.02933333 L38.232,1.08666667 C38.4693333,1.07066667 38.6986667,1.16666667 38.8506667,1.348 L47.5186667,11.6226667 C47.74,11.8853333 47.7533333,12.2653333 47.5493333,12.5413333 C47.4053333,12.736 47.1826667,12.844 46.952,12.844 Z M28.0173333,3.29333333 L44.388,10.212 L37.96,2.59333333 L28.0173333,3.29333333 Z" id="Shape"></path>
            <polygon id="Shape" points="16.744 53.6386667 15.9 51.8386667 37.6186667 1.09466667 38.9813333 1.67866667"></polygon>
            <path d="M17.448,54.5533333 C17.392,54.5533333 17.3346667,54.5466667 17.28,54.5346667 C17.088,54.4906667 16.9226667,54.3706667 16.8186667,54.204 L12.2,46.7773333 C12.168,46.6226667 12.82,46.5413333 12.2786667,46.2506667 C12.1053333,46.1573333 12.2706667,45.8586667 12.4386667,45.756 L19.8653333,41.1373333 C20.212,40.92 20.6706667,41.0266667 20.8866667,41.376 L25.5053333,48.8026667 C25.7213333,49.1506667 25.6146667,49.608 25.2666667,49.824 L17.84,54.444 C17.7213333,54.5146667 17.5853333,54.5533333 17.448,54.5533333 Z M13.8506667,46.6226667 L17.6866667,52.7893333 L23.8533333,48.9533333 L20.0173333,42.7866667 L13.8506667,46.6226667 Z" id="Shape"></path>
            <path d="M26.0866667,45.84 C25.9253333,45.84 25.7626667,45.7866667 25.6266667,45.68 L18.7746667,40.2453333 C18.62,40.1226667 18.5213333,39.944 18.4986667,39.7493333 C18.476,39.5533333 18.532,39.3573333 18.6546667,39.204 L24.0893333,32.352 C24.344,32.0306667 24.8106667,31.9773333 25.1306667,32.232 L31.9826667,37.6666667 C32.1373333,37.7893333 32.236,37.968 32.2586667,38.1626667 C32.2813333,38.3586667 32.2253333,38.5546667 32.1026667,38.708 L26.668,45.56 C26.5226667,45.744 26.3053333,45.84 26.0866667,45.84 Z M20.2773333,39.544 L25.968,44.0573333 L30.4813333,38.368 L24.7906667,33.8546667 L20.2773333,39.544 Z" id="Shape"></path>
            <rect id="Rectangle-path" x="12" y="33.3333333" width="20" height="1.33333333"></rect>
        </g>
    </g>
</svg>