<?xml version="1.0" encoding="UTF-8"?>
<svg width="60px" height="60px" viewBox="0 0 60 60" version="1.1" xmlns="http://www.w3.org/2000/svg" xmlns:xlink="http://www.w3.org/1999/xlink">
    <!-- Generator: Sketch 50.2 (55047) - http://www.bohemiancoding.com/sketch -->
    <title>discount</title>
    <desc>Created with Sketch.</desc>
    <defs></defs>
    <g id="discount" stroke="none" stroke-width="1" fill="none" fill-rule="evenodd">
        <g id="Discount" fill="#000000" fill-rule="nonzero">
            <path d="M60,26.4676153 L26.5394785,59.9253557 L25.8504847,59.2364513 C24.0463477,57.432548 21.1115143,57.432548 19.3073773,59.2364513 L19.268495,59.2799938 L18.5795013,60 L0,41.4229065 L0.77764529,40.6671332 C2.53356836,38.9114377 2.55378713,35.9987559 0.800974649,34.1948527 L0.132199699,33.5059482 L33.5787236,0.0653137392 L34.2677174,0.734002022 C36.0718544,2.48658736 38.9849137,2.4663712 40.7610555,0.68890444 L41.4500493,0 L60,18.5475468 L59.3110063,19.2364513 C57.5068692,21.0403546 57.5068692,23.9748076 59.3110063,25.7787108 L60,26.4676153 Z M26.4881539,57.2210559 L57.296905,26.4162973 C55.5829748,24.1038799 55.5829748,20.9112822 57.296905,18.5988648 L41.3987247,2.70274473 C39.1155581,4.38690615 35.9552076,4.40556722 33.650267,2.7493974 L2.81818653,33.5774823 C4.4916792,35.9038955 4.45590751,39.1042687 2.72331381,41.3902496 L18.6043859,57.2692637 C20.9233242,55.5089029 24.1521074,55.4917969 26.4881539,57.2210559 Z" id="Shape"></path>
            <g id="Group" transform="translate(13.846154, 12.307692)">
                <path d="M16.1230769,32.7861538 C15.9492308,32.96 15.7076923,33.0676923 15.4415385,33.0676923 C14.9092308,33.0676923 14.4784615,32.6369231 14.4784615,32.1046154 L14.4784615,1.82615385 C14.4784615,1.29384615 14.9092308,0.863076923 15.4415385,0.863076923 C15.9738462,0.863076923 16.4046154,1.29384615 16.4046154,1.82615385 L16.4046154,32.1061538 C16.4061538,32.3723077 16.2984615,32.6123077 16.1230769,32.7861538 Z" id="Shape"></path>
                <g transform="translate(0.000000, 10.769231)" id="Shape">
                    <path d="M28.44,9.53230769 C26.5646154,11.4076923 23.5138462,11.4076923 21.6384615,9.53230769 C19.7630769,7.65692308 19.7630769,4.60461538 21.6384615,2.72923077 C23.5138462,0.853846154 26.5661538,0.853846154 28.4415385,2.72923077 C30.3169231,4.60461538 30.3169231,7.65692308 28.44,9.53230769 Z M23,4.09230769 C21.8753846,5.21692308 21.8753846,7.04615385 23,8.16923077 C24.1246154,9.29384615 25.9538462,9.29384615 27.0769231,8.16923077 C28.2015385,7.04461538 28.2015385,5.21538462 27.0769231,4.09230769 C25.9538462,2.96769231 24.1246154,2.96769231 23,4.09230769 Z"></path>
                    <path d="M9.11384615,9.53230769 C7.23846154,11.4076923 4.18769231,11.4076923 2.31076923,9.53230769 C0.433846154,7.65692308 0.435384615,4.60461538 2.31076923,2.72923077 C4.18615385,0.853846154 7.23846154,0.853846154 9.11384615,2.72923077 C10.9892308,4.60461538 10.9892308,7.65692308 9.11384615,9.53230769 Z M3.67384615,4.09230769 C2.54923077,5.21692308 2.54923077,7.04615385 3.67384615,8.16923077 C4.79846154,9.29384615 6.62769231,9.29384615 7.75076923,8.16923077 C8.87538462,7.04461538 8.87538462,5.21538462 7.75076923,4.09230769 C6.62615385,2.96923077 4.79846154,2.96769231 3.67384615,4.09230769 Z"></path>
                </g>
            </g>
        </g>
    </g>
</svg>