<?xml version="1.0" encoding="UTF-8"?>
<svg width="60px" height="60px" viewBox="0 0 60 60" version="1.1" xmlns="http://www.w3.org/2000/svg" xmlns:xlink="http://www.w3.org/1999/xlink">
    <!-- Generator: Sketch 50.2 (55047) - http://www.bohemiancoding.com/sketch -->
    <title>easycheckin</title>
    <desc>Created with Sketch.</desc>
    <defs></defs>
    <g id="easycheckin" stroke="none" stroke-width="1" fill="none" fill-rule="evenodd">
        <g id="Easycheckin" transform="translate(2.000000, 6.000000)" fill="#000000" fill-rule="nonzero">
            <path d="M55.0469714,47.5045714 L52.1801143,47.5045714 L52.1801143,41.7029143 C50.7682286,41.4642857 49.6894286,40.2330286 49.6894286,38.7548571 L49.6894286,27.8512 L52.5562857,25.3257143 L52.5562857,38.7548571 C52.5562857,38.8211429 52.6126286,38.8774857 52.6789143,38.8774857 L55.0469714,38.8774857 M3.22977143,47.5045714 L0.362914286,47.5045714 L0.362914286,38.8774857 L2.73097143,38.8774857 C2.79891429,38.8774857 2.8536,38.8211429 2.8536,38.7548571 L2.8536,30.0018286 C2.8536,21.7641714 9.55342857,15.0643429 17.7910857,15.0643429 L37.6188,15.0643429 C42.4361143,15.0643429 45.7082286,16.1357714 48.5137714,20.0748 L46.4572571,22.0169714 C44.1886286,18.8336 41.5114286,17.9312 37.6188,17.9312 L17.7910857,17.9312 C11.136,17.9312 5.72045714,23.3450857 5.72045714,30.0018286 L5.72045714,38.7548571 C5.72045714,40.2330286 4.64165714,41.4642857 3.22977143,41.7029143" id="Shape"></path>
            <path d="M27.7041143,11.702 C24.4776571,11.702 21.8544,9.07708571 21.8544,5.85062857 C21.8544,2.62417143 24.4776571,0.000914285714 27.7041143,0.000914285714 C30.9305714,0.000914285714 33.5554857,2.62417143 33.5554857,5.85062857 C33.5554857,9.07708571 30.9305714,11.702 27.7041143,11.702 Z M27.7041143,2.86777143 C26.0585714,2.86777143 24.7212571,4.20508571 24.7212571,5.85062857 C24.7212571,7.49617143 26.0585714,8.83348571 27.7041143,8.83348571 C29.3496571,8.83348571 30.6869714,7.49451429 30.6869714,5.85062857 C30.6869714,4.20674286 29.348,2.86777143 27.7041143,2.86777143 Z" id="Shape"></path>
            <rect id="Rectangle-path" x="26.2706857" y="9.78634286" width="2.86685714" height="7.64771429"></rect>
            <path d="M42.0959448,31.5791143 L36.3560595,26.349303 C35.8813135,25.902264 35.8813135,25.1774042 36.3560595,24.7303652 C36.8308054,24.2833261 37.6005912,24.2833261 38.0753372,24.7303652 L42.0959448,28.3412386 L54.9699771,16.3352793 C55.444723,15.8882402 56.2145089,15.8882402 56.6892548,16.3352793 C57.1640008,16.7823183 57.1640008,17.5071781 56.6892548,17.9542171 L42.0959448,31.5791143 Z" id="Shape"></path>
            <rect id="Rectangle-path" x="0.361257143" y="45.8179429" width="54.6840571" height="2.86851429"></rect>
            <rect id="Rectangle-path" x="0.361257143" y="38.8179429" width="54.6840571" height="2.86851429"></rect>
        </g>
    </g>
</svg>