<?xml version="1.0" encoding="UTF-8"?>
<svg width="60px" height="60px" viewBox="0 0 60 60" version="1.1" xmlns="http://www.w3.org/2000/svg" xmlns:xlink="http://www.w3.org/1999/xlink">
    <!-- Generator: Sketch 50.2 (55047) - http://www.bohemiancoding.com/sketch -->
    <title>feedback</title>
    <desc>Created with Sketch.</desc>
    <defs></defs>
    <g id="feedback" stroke="none" stroke-width="1" fill="none" fill-rule="evenodd">
        <g id="Feedback" transform="translate(4.000000, 0.000000)" fill="#000000" fill-rule="nonzero">
            <path d="M26.25,59.8575 L18.516,51.921 L10.6005,51.921 C5.0535,51.921 0.54,47.4075 0.54,41.8605 L0.54,10.5615 C0.54,5.0145 5.0535,0.501 10.6005,0.501 L41.901,0.501 C47.4495,0.501 51.9615,5.0145 51.9615,10.5615 L51.9615,41.862 C51.9615,47.4105 47.448,51.9225 41.901,51.9225 L33.9855,51.9225 L26.25,59.8575 Z M10.6005,2.736 C6.285,2.736 2.775,6.246 2.775,10.5615 L2.775,41.862 C2.775,46.176 6.285,49.6875 10.6005,49.6875 L19.4595,49.6875 L26.25,56.655 L33.042,49.686 L41.901,49.686 C46.215,49.686 49.7265,46.1745 49.7265,41.8605 L49.7265,10.5615 C49.7265,6.246 46.215,2.736 41.901,2.736 L10.6005,2.736 Z" id="Shape"></path>
            <g id="Group" transform="translate(19.500000, 10.500000)">
                <path d="M6.75,23.2125 C6.2295,23.2125 5.778,22.854 5.661,22.3455 L0.999,2.091 C0.9225,1.7595 1.002,1.4115 1.2135,1.1445 C1.425,0.8775 1.7475,0.723 2.088,0.723 L11.4105,0.723 C11.751,0.723 12.0735,0.8775 12.285,1.1445 C12.4965,1.4115 12.576,1.7595 12.4995,2.091 L7.8375,22.3455 C7.722,22.854 7.2705,23.2125 6.75,23.2125 Z M3.492,2.958 L6.75,17.109 L10.008,2.958 L3.492,2.958 Z" id="Shape"></path>
                <path d="M6.69,32.4375 C4.803,32.4375 3.2685,30.903 3.2685,29.0145 C3.2685,27.1275 4.803,25.593 6.69,25.593 C8.577,25.593 10.113,27.1275 10.113,29.0145 C10.1115,30.903 8.577,32.4375 6.69,32.4375 Z M6.69,27.8295 C6.036,27.8295 5.505,28.3605 5.505,29.0145 C5.505,29.6685 6.036,30.201 6.69,30.201 C7.344,30.201 7.8765,29.6685 7.8765,29.0145 C7.8765,28.3605 7.344,27.8295 6.69,27.8295 Z" id="Shape"></path>
            </g>
        </g>
    </g>
</svg>