<?xml version="1.0" encoding="UTF-8"?>
<svg width="60px" height="60px" viewBox="0 0 60 60" version="1.1" xmlns="http://www.w3.org/2000/svg" xmlns:xlink="http://www.w3.org/1999/xlink">
    <!-- Generator: Sketch 50.2 (55047) - http://www.bohemiancoding.com/sketch -->
    <title>food</title>
    <desc>Created with Sketch.</desc>
    <defs></defs>
    <g id="food" stroke="none" stroke-width="1" fill="none" fill-rule="evenodd">
        <g id="Restaurant" transform="translate(0.000000, 10.000000)" fill="#000000" fill-rule="nonzero">
            <path d="M30.3821739,38.4782609 C20.0934783,38.4782609 11.7234783,30.1082609 11.7234783,19.8195652 C11.7234783,9.53086957 20.0934783,1.15956522 30.3821739,1.15956522 C40.6708696,1.15956522 49.0408696,9.52956522 49.0408696,19.8182609 C49.0408696,30.1069565 40.6708696,38.4782609 30.3821739,38.4782609 Z M30.3821739,2.79652174 C20.996087,2.79652174 13.3604348,10.4321739 13.3604348,19.8182609 C13.3604348,29.2043478 20.996087,36.84 30.3821739,36.84 C39.7682609,36.84 47.403913,29.2043478 47.403913,19.8182609 C47.403913,10.4334783 39.7682609,2.79652174 30.3821739,2.79652174 Z" id="Shape"></path>
            <path d="M44.2865217,20.6373913 C43.833913,20.6373913 43.4686957,20.2708696 43.4686957,19.8195652 C43.4686957,12.603913 37.5978261,6.73304348 30.3821739,6.73304348 C29.9295652,6.73304348 29.5643478,6.36652174 29.5643478,5.91521739 C29.5643478,5.4626087 29.9308696,5.0973913 30.3821739,5.0973913 C38.5004348,5.0973913 45.1056522,11.7026087 45.1056522,19.8208696 C45.1056522,20.2708696 44.7391304,20.6373913 44.2865217,20.6373913 Z" id="Shape"></path>
            <rect id="Rectangle-path" x="4.90304348" y="1.47" width="1.63695652" height="36.1891304"></rect>
            <path d="M54.9886957,37.6604348 L53.3517391,37.6604348 L53.3517391,0.652173913 L54.1695652,0.652173913 C56.9073913,0.652173913 59.133913,2.88 59.133913,5.61652174 L59.133913,19.4921739 L54.9873913,19.4921739 L54.9873913,37.6604348 L54.9886957,37.6604348 Z M54.9886957,17.8552174 L57.4982609,17.8552174 L57.4982609,5.61652174 C57.4982609,4.06434783 56.4286957,2.75608696 54.9886957,2.39086957 L54.9886957,17.8552174 Z" id="Shape"></path>
            <path d="M5.77565217,14.0908696 C3.06782609,14.0908696 0.864782609,11.8878261 0.864782609,9.18 L0.864782609,1.65130435 L2.50173913,1.65130435 L2.50173913,9.18 C2.50173913,10.9852174 3.97043478,12.453913 5.77565217,12.453913 C7.58086957,12.453913 9.04956522,10.9852174 9.04956522,9.18 L9.04956522,1.65130435 L10.6865217,1.65130435 L10.6865217,9.18 C10.6865217,11.8878261 8.48347826,14.0908696 5.77565217,14.0908696 Z" id="Shape"></path>
        </g>
    </g>
</svg>