<?xml version="1.0" encoding="UTF-8"?>
<svg width="60px" height="60px" viewBox="0 0 60 60" version="1.1" xmlns="http://www.w3.org/2000/svg" xmlns:xlink="http://www.w3.org/1999/xlink">
    <!-- Generator: Sketch 50.2 (55047) - http://www.bohemiancoding.com/sketch -->
    <title>freeparking</title>
    <desc>Created with Sketch.</desc>
    <defs></defs>
    <g id="freeparking" stroke="none" stroke-width="1" fill="none" fill-rule="evenodd">
        <g id="FreeParking" fill="#000000" fill-rule="nonzero">
            <path d="M27.6128571,45.8714286 L19.2742857,45.8714286 L19.2742857,14.1285714 L33.2928571,14.1285714 C36.74,14.1285714 39.5171429,15.0642857 41.5514286,16.9071429 C43.64,18.7571429 44.7028571,21.1957143 44.7028571,24.1485714 C44.7028571,27.1285714 43.6385714,29.5814286 41.5414286,31.44 C39.5185714,33.2757143 36.74,34.2114286 33.2928571,34.2114286 L27.6114286,34.2114286 L27.6114286,45.8714286 L27.6128571,45.8714286 Z M21.5514286,43.5942857 L25.3357143,43.5942857 L25.3357143,31.9342857 L33.2928571,31.9342857 C36.1557143,31.9342857 38.42,31.1985714 40.0214286,29.7442857 C41.6428571,28.3071429 42.4257143,26.4785714 42.4257143,24.1471429 C42.4257143,21.8428571 41.6428571,20.0285714 40.0314286,18.6014286 C38.4214286,17.14 36.1571429,16.4042857 33.2928571,16.4042857 L21.5514286,16.4042857 L21.5514286,43.5942857 Z M32.8728571,29.0328571 L25.3357143,29.0328571 L25.3357143,19.4314286 L32.8728571,19.4314286 C36.4314286,19.4314286 38.6414286,21.2714286 38.6414286,24.2328571 C38.6414286,27.1942857 36.43,29.0328571 32.8728571,29.0328571 Z M27.6128571,26.7571429 L32.8728571,26.7571429 C35.19,26.7571429 36.3657143,25.9085714 36.3657143,24.2328571 C36.3657143,22.5585714 35.1914286,21.7085714 32.8728571,21.7085714 L27.6128571,21.7085714 L27.6128571,26.7571429 Z" id="Shape"></path>
            <path d="M30,59.54 C13.7114286,59.54 0.46,46.2885714 0.46,30 C0.46,13.7114286 13.7114286,0.46 30,0.46 C46.2885714,0.46 59.54,13.7114286 59.54,30 C59.54,46.2885714 46.2885714,59.54 30,59.54 Z M30,2.73714286 C14.9671429,2.73714286 2.73714286,14.9671429 2.73714286,30 C2.73714286,45.0328571 14.9671429,57.2628571 30,57.2628571 C45.0328571,57.2628571 57.2628571,45.0328571 57.2628571,30 C57.2628571,14.9671429 45.0328571,2.73714286 30,2.73714286 Z" id="Shape"></path>
        </g>
    </g>
</svg>