<?xml version="1.0" encoding="UTF-8"?>
<svg width="60px" height="60px" viewBox="0 0 60 60" version="1.1" xmlns="http://www.w3.org/2000/svg" xmlns:xlink="http://www.w3.org/1999/xlink">
    <!-- Generator: Sketch 50.2 (55047) - http://www.bohemiancoding.com/sketch -->
    <title>freecancel</title>
    <desc>Created with Sketch.</desc>
    <defs></defs>
    <g id="freecancel" stroke="none" stroke-width="1" fill="none" fill-rule="evenodd">
        <g id="FreeCancel" transform="translate(0.000000, 14.000000)" fill="#000000" fill-rule="nonzero">
            <polygon id="Shape" points="15.12875 12.365 13.315 12.365 13.315 1.1775 19.6275 1.1775 19.6275 2.72375 15.1275 2.72375 15.1275 6.22125 19.34375 6.22125 19.34375 7.775 15.1275 7.775 15.1275 12.365"></polygon>
            <path d="M23.48375,7.895 L23.48375,12.36375 L21.655,12.36375 L21.655,1.17625 L24.815,1.17625 C26.25875,1.17625 27.3275,1.44625 28.02125,1.9875 C28.715,2.52875 29.0625,3.345 29.0625,4.4375 C29.0625,5.83 28.3375,6.8225 26.88875,7.41375 L30.04875,12.365 L27.9675,12.365 L25.28875,7.89625 L23.48375,7.89625 L23.48375,7.895 Z M23.48375,6.38 L24.75375,6.38 C25.60625,6.38 26.2225,6.22125 26.605,5.905 C26.9875,5.58875 27.17875,5.12 27.17875,4.4975 C27.17875,3.865 26.9725,3.41125 26.55875,3.135 C26.145,2.86 25.52375,2.72125 24.69125,2.72125 L23.4825,2.72125 L23.4825,6.38 L23.48375,6.38 Z" id="Shape"></path>
            <polygon id="Shape" points="38 12.365 31.67125 12.365 31.67125 1.1775 38 1.1775 38 2.72375 33.5 2.72375 33.5 5.76875 37.71625 5.76875 37.71625 7.29875 33.5 7.29875 33.5 10.81125 38 10.81125"></polygon>
            <polygon id="Shape" points="46.74625 12.365 40.4175 12.365 40.4175 1.1775 46.74625 1.1775 46.74625 2.72375 42.24625 2.72375 42.24625 5.76875 46.4625 5.76875 46.4625 7.29875 42.24625 7.29875 42.24625 10.81125 46.74625 10.81125"></polygon>
            <path d="M6.13,21.39 C5.07875,21.39 4.2525,21.7625 3.65125,22.5075 C3.04875,23.2525 2.74875,24.28 2.74875,25.59125 C2.74875,26.96375 3.03875,28.00125 3.6175,28.705 C4.19625,29.40875 5.035,29.76125 6.13125,29.76125 C6.60625,29.76125 7.065,29.71375 7.50875,29.62 C7.9525,29.52625 8.41375,29.405 8.89375,29.25625 L8.89375,30.825 C8.01625,31.15625 7.02125,31.3225 5.91,31.3225 C4.2725,31.3225 3.015,30.82625 2.1375,29.83375 C1.26,28.84125 0.82125,27.4225 0.82125,25.575 C0.82125,24.4125 1.03375,23.39375 1.46,22.52125 C1.88625,21.64875 2.5,20.9825 3.30625,20.51875 C4.1125,20.055 5.05875,19.8225 6.145,19.8225 C7.2875,19.8225 8.34375,20.0625 9.3125,20.54125 L8.655,22.06375 C8.2775,21.885 7.87875,21.72875 7.4575,21.59375 C7.03625,21.45875 6.59375,21.39 6.13,21.39 Z" id="Shape"></path>
            <path d="M18.2425,31.17 L17.125,28.0625 L12.8475,28.0625 L11.75375,31.16875 L9.825,31.16875 L14.01125,19.935 L16.00125,19.935 L20.1875,31.16875 L18.2425,31.16875 L18.2425,31.17 Z M16.64375,26.48625 L15.595,23.44125 C15.51875,23.2375 15.4125,22.91625 15.2775,22.4775 C15.1425,22.03875 15.04875,21.7175 14.99875,21.51375 C14.86125,22.14125 14.66,22.8275 14.39375,23.5725 L13.38375,26.4875 L16.64375,26.4875 L16.64375,26.48625 Z" id="Shape"></path>
            <path d="M30.98375,31.17 L28.74125,31.17 L23.24,22.255 L23.17875,22.255 L23.2175,22.7525 C23.28875,23.70125 23.325,24.56875 23.325,25.35375 L23.325,31.16875 L21.665,31.16875 L21.665,19.98125 L23.88375,19.98125 L29.37,28.85 L29.41625,28.85 C29.40625,28.7325 29.38625,28.305 29.355,27.56875 C29.32375,26.8325 29.30875,26.25625 29.30875,25.84375 L29.30875,19.9825 L30.985,19.9825 L30.985,31.17 L30.98375,31.17 Z" id="Shape"></path>
            <path d="M38.69625,21.39 C37.645,21.39 36.81875,21.7625 36.2175,22.5075 C35.615,23.2525 35.315,24.28 35.315,25.59125 C35.315,26.96375 35.605,28.00125 36.18375,28.705 C36.7625,29.40875 37.60125,29.76125 38.6975,29.76125 C39.1725,29.76125 39.63125,29.71375 40.075,29.62 C40.51875,29.52625 40.98,29.405 41.46,29.25625 L41.46,30.825 C40.5825,31.15625 39.5875,31.3225 38.47625,31.3225 C36.83875,31.3225 35.58125,30.82625 34.70375,29.83375 C33.82625,28.84125 33.3875,27.4225 33.3875,25.575 C33.3875,24.4125 33.6,23.39375 34.02625,22.52125 C34.4525,21.64875 35.06875,20.98125 35.87375,20.51625 C36.68,20.0525 37.62625,19.82 38.7125,19.82 C39.855,19.82 40.91125,20.06 41.88,20.53875 L41.2225,22.06125 C40.845,21.8825 40.44625,21.72625 40.025,21.59125 C39.60375,21.45875 39.16125,21.39 38.69625,21.39 Z" id="Shape"></path>
            <polygon id="Shape" points="50.1975 31.17 43.86875 31.17 43.86875 19.9825 50.1975 19.9825 50.1975 21.52875 45.6975 21.52875 45.6975 24.57375 49.91375 24.57375 49.91375 26.10375 45.6975 26.10375 45.6975 29.61625 50.1975 29.61625"></polygon>
            <polygon id="Shape" points="52.615 31.17 52.615 19.9825 54.44375 19.9825 54.44375 29.60125 59.18 29.60125 59.18 31.17"></polygon>
        </g>
    </g>
</svg>