<?xml version="1.0" encoding="UTF-8"?>
<svg width="60px" height="60px" viewBox="0 0 60 60" version="1.1" xmlns="http://www.w3.org/2000/svg" xmlns:xlink="http://www.w3.org/1999/xlink">
    <!-- Generator: Sketch 50.2 (55047) - http://www.bohemiancoding.com/sketch -->
    <title>gift</title>
    <desc>Created with Sketch.</desc>
    <defs></defs>
    <g id="gift" stroke="none" stroke-width="1" fill="none" fill-rule="evenodd">
        <g id="Gift" fill="#000000" fill-rule="nonzero">
            <path d="M54.51,59.7216667 L5.49,59.7216667 L5.49,18.2183333 L54.51,18.2183333 L54.51,59.7216667 Z M7.69166667,57.52 L52.3083333,57.52 L52.3083333,20.42 L7.69166667,20.42 L7.69166667,57.52 Z" id="Shape"></path>
            <path d="M58.8833333,20.0883333 L1.11666667,20.0883333 L1.11666667,10.3183333 L58.8833333,10.3183333 L58.8833333,20.0883333 Z M3.31833333,17.8866667 L56.6816667,17.8866667 L56.6816667,12.52 L3.31833333,12.52 L3.31833333,17.8866667 Z" id="Shape"></path>
            <rect id="Rectangle-path" x="28.9" y="11.2166667" width="2.20166667" height="46.965"></rect>
            <rect id="Rectangle-path" x="6.51833333" y="33.6716667" width="46.965" height="2.20166667"></rect>
            <path d="M31.1,12.52 L24.9066667,12.52 C21.6616667,12.52 19.0233333,9.88 19.0233333,6.63666667 L19.0233333,0.443333333 L20.1233333,0.443333333 C26.175,0.443333333 31.1,5.36666667 31.1,11.42 L31.1,12.52 Z M21.225,2.71333333 L21.225,6.63666667 C21.225,8.66666667 22.8766667,10.3183333 24.9066667,10.3183333 L28.83,10.3183333 C28.3333333,6.35833333 25.185,3.21 21.225,2.71333333 Z" id="Shape"></path>
            <path d="M35.0933333,12.52 L28.9,12.52 L28.9,11.42 C28.9,5.36833333 33.8233333,0.443333333 39.8766667,0.443333333 L40.9766667,0.443333333 L40.9766667,6.63666667 C40.9766667,9.88 38.3366667,12.52 35.0933333,12.52 Z M31.17,10.3183333 L35.0933333,10.3183333 C37.1233333,10.3183333 38.775,8.66666667 38.775,6.63666667 L38.775,2.71333333 C34.815,3.21 31.6666667,6.35833333 31.17,10.3183333 Z" id="Shape"></path>
        </g>
    </g>
</svg>