<?xml version="1.0" encoding="UTF-8"?>
<svg width="60px" height="60px" viewBox="0 0 60 60" version="1.1" xmlns="http://www.w3.org/2000/svg" xmlns:xlink="http://www.w3.org/1999/xlink">
    <!-- Generator: Sketch 50.2 (55047) - http://www.bohemiancoding.com/sketch -->
    <title>glasses</title>
    <desc>Created with Sketch.</desc>
    <defs></defs>
    <g id="glasses" stroke="none" stroke-width="1" fill="none" fill-rule="evenodd">
        <g id="icn-1" transform="translate(9.000000, 1.000000)" fill="#000000">
            <path d="M21.7299049,0.0351104676 C22.8904621,-0.118729831 24.0589655,0.267273403 24.8894669,1.0813983 C26.3697106,2.53816322 26.3697106,4.89580236 24.8901949,6.35185289 L20.5281501,10.6366169 C20.1390738,11.0188 19.5155187,11.0187461 19.1265086,10.6364957 L14.7647965,6.35057582 C13.2832952,4.89617554 13.2832952,2.53630742 14.764278,1.08241652 C15.5942662,0.266425717 16.7636317,-0.120787507 17.9251456,0.0331796034 C18.6340362,0.127148209 19.291578,0.416302849 19.8283422,0.8556197 C20.3649824,0.417383891 21.0218728,0.128965264 21.7299049,0.0351104676 Z M21.9927205,2.01776726 C21.4424192,2.09071369 20.9618728,2.40903307 20.6932852,2.87395868 C20.3079997,3.54088873 19.3450655,3.5401803 18.9607617,2.87268405 C18.6929068,2.40744766 18.2125806,2.08877613 17.66233,2.0158364 C17.1098743,1.94260438 16.5553561,2.12622258 16.1658959,2.50911434 C15.4829288,3.17958804 15.4829288,4.25289492 16.1662286,4.92369538 L19.8275123,8.52135788 L23.4880035,4.92571878 C24.1704321,4.25411323 24.1706654,3.18081609 23.4887034,2.50893592 C23.0991775,2.12752337 22.5448893,1.94457328 21.9927205,2.01776726 Z M6.73098316,16.4453825 L4.03511504,38.2559442 C3.71967257,40.8017675 5.57281589,43.1219277 8.18453647,43.4319919 C9.44649652,43.5797544 10.7161762,43.2314101 11.7119034,42.4656088 C12.7026687,41.7036236 13.3404188,40.5913998 13.4871672,39.3743147 L16.1836967,17.5701121 L6.73098316,16.4453825 Z M12.9311822,44.0509665 C11.5212541,45.1353245 9.73039063,45.6266587 7.95034944,45.418233 C4.24438114,44.9782613 1.59750149,41.6643326 2.05025662,38.0103084 L4.86820134,15.2121018 C4.9357323,14.6657516 5.4321483,14.2767332 5.97880025,14.3417765 L17.417591,15.7028192 C17.9677988,15.7682856 18.3598853,16.2686505 18.291879,16.8185502 L15.4725954,39.6153057 C15.2609143,41.3673255 14.3456476,42.9631189 12.9311822,44.0509665 Z" id="Shape" fill-rule="nonzero"></path>
            <path d="M15.2158783,25.8785122 C15.8989985,20.2972098 15.5732939,24.9403112 16.1214878,25.0074071 C16.6696818,25.0745029 17.0596888,25.5732939 16.9925929,26.1214878 C16.1749511,32.8018734 10.0448296,37.5568897 3.30464321,36.7478407 C2.75629465,36.6820204 2.36512819,36.1841382 2.43094845,35.6357897 C2.49676872,35.0874411 2.99465092,34.6962747 3.54299947,34.7620949 C9.19274241,35.4402541 14.5327581,31.4598146 15.2158783,25.8785122 Z" id="Shape" fill-rule="nonzero"></path>
            <path d="M22.0074755,16.4608231 C21.9399108,15.911358 22.3316159,15.4115564 22.881306,15.345847 L34.0808073,14.0070691 C34.627854,13.9416757 35.1247424,14.3310715 35.1920179,14.87789 L37.9510362,37.3033315 C38.393509,40.9052418 35.795375,44.1732919 32.1549147,44.607707 C30.4069639,44.8133192 28.6468996,44.3283958 27.2613793,43.2583529 C25.8722079,42.1854902 24.9733075,40.6121365 24.7648425,38.8849253 L22.0074755,16.4608231 Z M26.7500338,38.6419915 C26.8941895,39.8383283 27.517087,40.9288201 28.4838549,41.6754588 C29.4546114,42.425178 30.6917564,42.7660296 31.9196003,42.6215992 C34.4649231,42.3178656 36.2726757,40.0439927 35.9659806,37.5473689 L33.3286753,16.1112172 L24.1149825,17.2126134 L26.7500338,38.6419915 Z" id="Shape" fill-rule="nonzero"></path>
            <path d="M23.3232147,26.1219508 C22.5024299,19.4416823 23.3299869,25.0748154 23.8781456,25.0074639 C24.4263043,24.9401123 24.9252736,25.3298866 24.9926248,25.8780492 C25.6784457,31.4598634 30.8097562,35.440219 36.4572091,34.7620997 C37.0055511,34.6962574 37.5034455,35.0874039 37.5692874,35.6357498 C37.6351292,36.1840957 37.2439855,36.6819936 36.6956435,36.7478359 C29.9578599,37.5568769 24.1439995,32.8022194 23.3232147,26.1219508 Z" id="Shape" fill-rule="nonzero"></path>
            <path d="M34.439525,55.0736015 L38.8808084,54.5404368 C39.429156,54.4746091 39.9270435,54.8657688 39.9928713,55.4141165 C40.058699,55.9624641 39.6675393,56.4603516 39.1191916,56.5261794 L27.9034314,57.8726025 C27.3550838,57.9384303 26.8571962,57.5472706 26.7913685,56.9989229 C26.7255408,56.4505752 27.1167005,55.9526877 27.6650481,55.88686 L32.4833357,55.308437 C32.4666454,55.2501737 32.4539952,55.188072 32.4458777,55.1220714 L31.0455684,43.7366258 C30.8828066,42.4132641 32.8678492,42.1691213 33.0306111,43.4924831 L34.4309204,54.8779286 C34.4392966,54.9460334 34.4419845,55.0112799 34.439525,55.0736015 Z" id="Combined-Shape"></path>
            <path d="M5.74218867,55.0953607 L7.07578902,44.3025751 C7.23929759,42.9793054 9.22420215,43.2245683 9.06069358,44.547838 L7.72794601,55.3337221 L12.3360534,55.8868586 C12.8844019,55.9526799 13.2755674,56.4505628 13.2097461,56.9989112 C13.1439248,57.5472597 12.6460419,57.9384252 12.0976935,57.8726039 L0.88082002,56.5261808 C0.332471587,56.4603595 -0.0586939523,55.9624766 0.0071273333,55.4141281 C0.072948619,54.8657797 0.570831548,54.4746141 1.11917998,54.5404354 L5.74218867,55.0953607 Z" id="Combined-Shape"></path>
        </g>
    </g>
</svg>