<?xml version="1.0" encoding="UTF-8"?>
<svg width="60px" height="60px" viewBox="0 0 60 60" version="1.1" xmlns="http://www.w3.org/2000/svg" xmlns:xlink="http://www.w3.org/1999/xlink">
    <!-- Generator: Sketch 50.2 (55047) - http://www.bohemiancoding.com/sketch -->
    <title>chocolates</title>
    <desc>Created with Sketch.</desc>
    <defs></defs>
    <g id="chocolates" stroke="none" stroke-width="1" fill="none" fill-rule="evenodd">
        <g id="Page-1" transform="translate(1.000000, 5.000000)" fill="#000000" fill-rule="nonzero">
            <path d="M30.7962125,3.83911147 C37.2459132,-2.61251858 47.7082657,-2.61251858 54.1616136,3.83890001 C60.6132436,10.29053 60.6132436,20.7528825 54.162112,27.2040138 L29.707862,51.6854513 C29.3172481,52.0764996 28.6834769,52.0764996 28.292863,51.6854513 L3.83900572,27.2044068 C-2.61251857,20.7528825 -2.61251857,10.29053 3.83900572,3.83900572 C10.2905124,-2.61250096 20.7509708,-2.61250096 27.2044068,3.83900572 C27.8640773,4.49867623 28.4617612,5.213957 29.0003617,5.98210022 C29.5389524,5.21396787 30.1366106,4.49871331 30.7962125,3.83911147 Z M32.2105318,5.25321928 C31.3021607,6.16159036 30.5252264,7.19425676 29.86918,8.34543253 C29.4855531,9.01858916 28.5151719,9.01858916 28.131545,8.34543253 C27.4754986,7.19425676 26.6985643,6.16159036 25.7902989,5.25332499 C20.1180042,-0.417274044 10.9237126,-0.417274044 5.25321928,5.25321928 C-0.417256427,10.923695 -0.417256427,20.1197175 5.25361202,25.7905862 L29.0003625,49.5637376 L52.7475057,25.7901932 C58.4179638,20.1197351 58.4179814,10.9237521 52.7475586,5.25327214 C47.0752772,-0.417256419 37.8792942,-0.417238803 32.2105318,5.25321928 Z" id="Stroke-1"></path>
            <polygon id="Stroke-3" points="3.628625 26.4890063 3.628625 24.4890063 54.5109375 24.4890063 54.5109375 26.4890063"></polygon>
            <path d="M30.0084059,25.4738042 C30.01679,26.0319013 29.5666789,26.488825 29.0085188,26.488825 L25.3345812,26.488825 C22.7816541,26.488825 20.7132062,24.4210923 20.7132062,21.8692625 C20.7132062,19.3159778 22.7812965,17.2478875 25.3345812,17.2478875 C27.8824962,17.2478875 29.9498423,19.3125853 29.954137,21.8613054 L30.0084059,25.4738042 Z M27.9542566,21.8842833 C27.9541438,20.4214535 26.7805778,19.2478875 25.3345812,19.2478875 C23.885866,19.2478875 22.7132062,20.4205472 22.7132062,21.8692625 C22.7132062,23.316368 23.8860688,24.488825 25.3345812,24.488825 L27.9933834,24.488825 L27.9542566,21.8842833 Z" id="Stroke-5"></path>
            <path d="M32.6833625,24.488825 C34.1318749,24.488825 35.3047375,23.316368 35.3047375,21.8692625 C35.3047375,20.4205472 34.1320778,19.2478875 32.6833625,19.2478875 C31.237366,19.2478875 30.0638,20.4214535 30.0638,21.8692625 L30.0245604,24.488825 L32.6833625,24.488825 Z M32.6833625,17.2478875 C35.2366472,17.2478875 37.3047375,19.3159778 37.3047375,21.8692625 C37.3047375,24.4210923 35.2362896,26.488825 32.6833625,26.488825 L29.009425,26.488825 C28.4512649,26.488825 28.0011538,26.0319013 28.0095378,25.4738042 L28.0638067,21.8613054 C28.0681015,19.3125853 30.1354475,17.2478875 32.6833625,17.2478875 Z" id="Stroke-7"></path>
            <path d="M28.3017745,24.7994807 C28.6922988,24.4089564 29.3254637,24.4089564 29.715988,24.7994807 C30.1065123,25.190005 30.1065123,25.82317 29.715988,26.2136943 L22.0183005,33.9113818 C21.6277762,34.3019061 20.9946113,34.3019061 20.604087,33.9113818 C20.2135627,33.5208575 20.2135627,32.8876925 20.604087,32.4971682 L28.3017745,24.7994807 Z" id="Stroke-9"></path>
            <path d="M28.3619495,26.2136943 C27.9714252,25.82317 27.9714252,25.190005 28.3619495,24.7994807 C28.7524738,24.4089564 29.3856387,24.4089564 29.776163,24.7994807 L37.4738505,32.4971682 C37.8643748,32.8876925 37.8643748,33.5208575 37.4738505,33.9113818 C37.0833262,34.3019061 36.4501613,34.3019061 36.059637,33.9113818 L28.3619495,26.2136943 Z" id="Stroke-11"></path>
        </g>
    </g>
</svg>