<?xml version="1.0" encoding="UTF-8"?>
<svg width="60px" height="60px" viewBox="0 0 60 60" version="1.1" xmlns="http://www.w3.org/2000/svg" xmlns:xlink="http://www.w3.org/1999/xlink">
    <!-- Generator: Sketch 50.2 (55047) - http://www.bohemiancoding.com/sketch -->
    <title>hotdrink</title>
    <desc>Created with Sketch.</desc>
    <defs></defs>
    <g id="hotdrink" stroke="none" stroke-width="1" fill="none" fill-rule="evenodd">
        <g id="Bar" transform="translate(10.000000, 0.000000)" fill="#000000" fill-rule="nonzero">
            <path d="M38.6386957,44.3373913 L33.6586957,44.3373913 L33.6586957,33.5869565 L38.6386957,33.5869565 C41.6034783,33.5869565 44.013913,35.9973913 44.013913,38.9621739 C44.013913,41.9269565 41.6034783,44.3373913 38.6386957,44.3373913 Z M35.73,42.266087 L38.6386957,42.266087 C40.4608696,42.266087 41.9426087,40.7843478 41.9426087,38.9621739 C41.9426087,37.14 40.4608696,35.6582609 38.6386957,35.6582609 L35.73,35.6582609 L35.73,42.266087 Z" id="Shape"></path>
            <path d="M28.0669565,54.6717391 L8.43130435,54.6717391 C4.20652174,54.6717391 0.76826087,51.2347826 0.76826087,47.0086957 L0.76826087,26.4991304 L35.73,26.4991304 L35.73,47.01 C35.73,51.2347826 32.2930435,54.6717391 28.0669565,54.6717391 Z M2.83956522,28.5691304 L2.83956522,47.0086957 C2.83956522,50.0921739 5.34782609,52.6004348 8.43130435,52.6004348 L28.0682609,52.6004348 C31.1517391,52.6004348 33.66,50.0921739 33.66,47.0086957 L33.66,28.5691304 L2.83956522,28.5691304 Z" id="Shape"></path>
            <g id="Group" transform="translate(9.130435, 0.000000)">
                <path d="M2.37391304,23.6556522 C0.894782609,22.0121739 -1.02521739,17.6386957 2.29173913,12.8465217 C5.57478261,8.10391304 1.5026087,2.07130435 1.46086957,2.01 L3.16826087,0.837391304 C3.37043478,1.13217391 8.08173913,8.12086957 3.99521739,14.0256522 C0.800869565,18.6404348 3.78913043,22.1282609 3.91695652,22.2743478 L2.37391304,23.6556522 Z" id="Shape"></path>
                <path d="M8.43913043,23.6556522 C6.96,22.0121739 5.04,17.6386957 8.35695652,12.8465217 C11.64,8.10391304 7.56782609,2.07130435 7.52608696,2.01 L9.23347826,0.837391304 C9.43565217,1.13217391 14.1469565,8.12086957 10.0604348,14.0256522 C6.86608696,18.6404348 9.85434783,22.1282609 9.98217391,22.2743478 L8.43913043,23.6556522 Z" id="Shape"></path>
                <path d="M14.5147826,23.6556522 C13.0356522,22.0121739 11.1156522,17.6386957 14.4326087,12.8465217 C17.7156522,8.10391304 13.6434783,2.07130435 13.6017391,2.01 L15.3091304,0.837391304 C15.5113043,1.13217391 20.2226087,8.12086957 16.1347826,14.0256522 C12.9404348,18.6404348 15.9286957,22.1282609 16.0565217,22.2743478 L14.5147826,23.6556522 Z" id="Shape"></path>
            </g>
            <path d="M31.2991304,60 L5.20043478,60 L5.20043478,52.6004348 L31.2991304,52.6004348 L31.2991304,60 Z M7.27043478,57.7037329 L29.2265217,57.7037329 L29.2265217,52.6004348 L7.27043478,52.6004348 L7.27043478,57.7037329 Z" id="Shape"></path>
        </g>
    </g>
</svg>