<?xml version="1.0" encoding="UTF-8"?>
<svg width="60px" height="60px" viewBox="0 0 60 60" version="1.1" xmlns="http://www.w3.org/2000/svg" xmlns:xlink="http://www.w3.org/1999/xlink">
    <!-- Generator: Sketch 50.2 (55047) - http://www.bohemiancoding.com/sketch -->
    <title>letter</title>
    <desc>Created with Sketch.</desc>
    <defs></defs>
    <g id="letter" stroke="none" stroke-width="1" fill="none" fill-rule="evenodd">
        <g id="Page-1" transform="translate(1.000000, 10.000000)" fill="#000000" fill-rule="nonzero">
            <path d="M0,39.9757188 C-0.55228475,39.9757188 -1,39.5280035 -1,38.9757188 L-1,1 C-1,0.44771525 -0.55228475,0 0,0 L58.166625,0 C58.7189097,0 59.166625,0.44771525 59.166625,1 L59.166625,38.9757188 C59.166625,39.5280035 58.7189097,39.9757188 58.166625,39.9757188 L0,39.9757188 Z M1,37.9757188 L57.166625,37.9757188 L57.166625,2 L1,2 L1,37.9757188 Z" id="Stroke-1"></path>
            <path d="M36.5707876,16.2934491 C36.1083359,16.5953711 35.4886886,16.4652361 35.1867666,16.0027844 C34.8848446,15.5403328 35.0149795,14.9206855 35.4774312,14.6187634 L57.6208687,0.161919697 C58.0833204,-0.140002324 58.7029677,-0.00986733848 59.0048897,0.452584322 C59.3068117,0.915035982 59.1766767,1.53468328 58.7142251,1.8366053 L36.5707876,16.2934491 Z" id="Stroke-3"></path>
            <path d="M-0.545972595,1.83695321 C-1.00841275,1.53501357 -1.13852411,0.915361307 -0.836584465,0.452921155 C-0.534644817,-0.00951899632 0.0850074427,-0.139630362 0.547447595,0.162309285 L22.6890413,14.619153 C23.1514815,14.9210927 23.2815929,15.5407449 22.9796532,16.0031851 C22.6777136,16.4656252 22.0580613,16.5957366 21.5956212,16.293797 L-0.545972595,1.83695321 Z" id="Stroke-4"></path>
            <path d="M36.089727,13.8853387 C38.0423248,15.8379363 38.0423248,19.00257 36.0904545,20.9544402 L29.7903607,27.2600652 C29.3997252,27.6510437 28.7660017,27.6509973 28.3754233,27.2599617 L22.0780043,20.9551676 C20.1234236,19.0028918 20.1234236,15.8376144 22.077587,13.8857557 C24.00935,11.9539927 27.1284998,11.9337205 29.0829506,13.8249394 C31.0377591,11.9337929 34.1563039,11.9541956 36.089727,13.8853387 Z M30.435363,15.2999693 C30.2490441,15.4862882 30.0888069,15.6992486 29.9518343,15.9396793 C29.5682416,16.6130069 28.5976459,16.6130069 28.2140532,15.9396793 C28.0770806,15.6992486 27.9168434,15.4862882 27.7301069,15.2995515 C26.5608445,14.128907 24.6628629,14.128907 23.4913832,15.3003863 C22.3189639,16.4714231 22.3189639,18.3690832 23.4922142,19.5409508 L29.0830473,25.1383306 L34.6759307,19.540537 C35.8469931,18.3694745 35.8470627,16.4713266 34.6761393,15.3001779 C33.5031908,14.1288375 31.605043,14.1289069 30.435363,15.2999693 Z" id="Stroke-5"></path>
        </g>
    </g>
</svg>