<?xml version="1.0" encoding="UTF-8"?>
<svg width="60px" height="60px" viewBox="0 0 60 60" version="1.1" xmlns="http://www.w3.org/2000/svg" xmlns:xlink="http://www.w3.org/1999/xlink">
    <!-- Generator: Sketch 50.2 (55047) - http://www.bohemiancoding.com/sketch -->
    <title>people</title>
    <desc>Created with Sketch.</desc>
    <defs></defs>
    <g id="people" stroke="none" stroke-width="1" fill="none" fill-rule="evenodd">
        <g id="People" transform="translate(0.000000, 6.000000)" fill="#000000" fill-rule="nonzero">
            <path d="M12.9252632,8.68578947 C9.46105263,8.68578947 6.64263158,11.5042105 6.64263158,14.9684211 C6.64263158,18.4326316 9.46105263,21.2510526 12.9252632,21.2510526 C16.3894737,21.2510526 19.2078947,18.4326316 19.2078947,14.9684211 C19.2078947,11.5042105 16.3894737,8.68578947 12.9252632,8.68578947 Z M12.9252632,19.4068421 C10.4778947,19.4068421 8.48526316,17.4157895 8.48526316,14.9684211 C8.48526316,12.5210526 10.4763158,10.5284211 12.9252632,10.5284211 C15.3742105,10.5284211 17.3636842,12.5194737 17.3636842,14.9684211 C17.3636842,17.4173684 15.3742105,19.4068421 12.9252632,19.4068421 Z" id="Shape"></path>
            <path d="M47.9463158,8.68578947 C44.4821053,8.68578947 41.6636842,11.5042105 41.6636842,14.9684211 C41.6636842,18.4326316 44.4821053,21.2510526 47.9463158,21.2510526 C51.4105263,21.2510526 54.2289474,18.4326316 54.2289474,14.9684211 C54.2289474,11.5042105 51.4105263,8.68578947 47.9463158,8.68578947 Z M47.9463158,19.4068421 C45.4989474,19.4068421 43.5078947,17.4157895 43.5078947,14.9684211 C43.5078947,12.5210526 45.4989474,10.5284211 47.9463158,10.5284211 C50.3936842,10.5284211 52.3863158,12.5194737 52.3863158,14.9684211 C52.3863158,17.4173684 50.3936842,19.4068421 47.9463158,19.4068421 Z" id="Shape"></path>
            <path d="M30.4357895,0 C25.4447368,0 21.3852632,4.05947368 21.3852632,9.04894737 C21.3852632,14.04 25.4447368,18.0994737 30.4357895,18.0994737 C35.4268421,18.0994737 39.4863158,14.04 39.4863158,9.04894737 C39.4863158,4.05947368 35.4268421,0 30.4357895,0 Z M30.4357895,16.2568421 C26.4615789,16.2568421 23.2278947,13.0247368 23.2278947,9.04894737 C23.2278947,5.07473684 26.46,1.84263158 30.4357895,1.84263158 C34.4115789,1.84263158 37.6436842,5.07473684 37.6436842,9.04894737 C37.6436842,13.0231579 34.41,16.2568421 30.4357895,16.2568421 Z" id="Shape"></path>
            <path d="M47.5105263,23.0431579 C45.1863158,23.0431579 43.0215789,24.0868421 41.1757895,25.5173684 C38.1773684,22.4005263 34.4147368,20.6842105 30.3631579,20.6842105 L29.6368421,20.6842105 C25.5852632,20.6842105 21.8226316,22.4005263 18.8242105,25.5173684 C16.9784211,24.0868421 14.8136842,23.1442105 12.4894737,23.1442105 C5.81210526,23.1442105 0.380526316,29.9147368 0.380526316,38.2973684 C0.380526316,38.8942105 0.415263158,39.4547368 0.467368421,40.0326316 L0.573157895,41.1757895 L1.67526316,40.8047368 C4.86157895,39.7468421 8.87684211,39.2147368 12.6442105,39.2052632 C12.4831579,40.4036842 12.6315789,41.6163158 12.6315789,42.8542105 L12.6315789,44.3684211 L29.49,44.3684211 L30.5084211,44.3684211 L47.3684211,44.3684211 L47.3684211,42.8542105 C47.3684211,41.6163158 47.5168421,40.3989474 47.3542105,39.2021053 C51.1215789,39.2115789 55.0105263,39.7405263 58.1968421,40.7984211 L59.3621053,41.1631579 L59.4994737,40.0073684 C59.5531579,39.4294737 59.6021053,38.8436842 59.6021053,38.2468421 C59.6036842,29.8642105 54.1878947,23.0431579 47.5105263,23.0431579 Z M12.4894737,37.3263158 C8.87842105,37.3263158 5.35736842,37.7984211 2.23105263,38.6984211 C2.22631579,38.5484211 2.22315789,38.3984211 2.22315789,38.2468421 C2.22315789,30.8794737 6.82894737,24.8857895 12.4894737,24.8857895 C14.3573684,24.8857895 16.1068421,25.5489474 17.6178947,26.6889474 C15.2826316,29.5878947 13.5568421,33.2715789 12.7136842,37.3326316 C12.6378947,37.3326316 12.5652632,37.3263158 12.4894737,37.3263158 Z M45.5857895,42.7894737 L14.3921053,42.7894737 C14.3652632,42.3426316 14.3352632,41.8973684 14.3352632,41.4426316 C14.3352632,31.0136842 21.3426316,22.5584211 29.9873684,22.5584211 C38.6321053,22.5584211 45.6394737,31.0136842 45.6394737,41.4426316 C45.6410526,41.8973684 45.6110526,42.3426316 45.5857895,42.7894737 Z M57.7689474,38.6984211 C54.6410526,37.7984211 51.1215789,37.3263158 47.5105263,37.3263158 C47.4347368,37.3263158 47.3621053,37.3326316 47.2863158,37.3342105 C46.4431579,33.2731579 44.7173684,29.5894737 42.3821053,26.6905263 C43.8931579,25.5505263 45.6410526,24.8873684 47.5105263,24.8873684 C53.1710526,24.8873684 57.7768421,30.8810526 57.7768421,38.2484211 C57.7768421,38.3984211 57.7736842,38.5484211 57.7689474,38.6984211 Z" id="Shape"></path>
        </g>
    </g>
</svg>