<?xml version="1.0" encoding="UTF-8"?>
<svg width="60px" height="60px" viewBox="0 0 60 60" version="1.1" xmlns="http://www.w3.org/2000/svg" xmlns:xlink="http://www.w3.org/1999/xlink">
    <!-- Generator: Sketch 50.2 (55047) - http://www.bohemiancoding.com/sketch -->
    <title>piggybank</title>
    <desc>Created with Sketch.</desc>
    <defs></defs>
    <g id="piggybank" stroke="none" stroke-width="1" fill="none" fill-rule="evenodd">
        <g id="Moneysaver" transform="translate(1.000000, 1.000000)" fill="#1D1D1B" fill-rule="nonzero">
            <path d="M46.6425272,59 L41.641778,59 L40.6432763,52.9347978 C37.1890373,54.1407205 33.3570983,54.77448 29.4921963,54.77448 C26.3620926,54.77448 23.0149831,54.2995026 19.7516544,53.397456 L18.8149582,58.9986312 L13.3403671,58.9986312 L11.8075915,50.2396087 C4.40466975,46.2988015 0,40.7455347 0,35.3250426 C0,34.4093079 0.0933949307,33.4894668 0.278811337,32.5901579 C0.486203022,31.5827129 1.70033712,31.5142724 3.37869896,31.4184556 C3.98713947,31.3842353 4.6161818,31.3472774 4.98976152,31.2678864 C5.85366463,29.1147464 7.24222749,27.1231262 9.1224872,25.3327213 L5.2397303,19.4044002 L6.10225996,18.9540614 C7.31639406,18.3203018 8.62529654,18 9.99188413,18 C12.3720814,18 14.5929579,18.9841752 16.1847921,20.7239342 C20.1829192,18.9650119 24.7675115,18.0369579 29.4921963,18.0369579 C43.5577475,18.0369579 55,26.2772009 55,36.4050346 C55,40.7386906 52.8807591,44.9272527 49.0240979,48.2288252 L46.6425272,59 Z M43.1443376,57.2369713 L45.2210014,57.2369713 L47.4253964,47.2665509 L47.6575103,47.0735486 C51.2518417,44.0826962 53.2309901,40.2951958 53.2309901,36.4077722 C53.2309901,27.2517945 42.5825946,19.8027243 29.4921963,19.8027243 C24.7798726,19.8027243 20.2241229,20.7718426 16.3180172,22.6033119 L15.6752404,22.9044503 L15.2412286,22.3446066 C13.9707829,20.7047708 12.0575602,19.7657664 9.99325759,19.7657664 C9.24609814,19.7657664 8.52091397,19.8875906 7.82731927,20.1285013 L11.4312648,25.6324909 L10.8612811,26.1375822 C8.8244475,27.9416753 7.37133225,29.9702534 6.5390186,32.1699329 C6.30415782,32.7913732 5.62292421,32.9378359 5.36608815,32.9939572 C4.85790985,33.1034621 4.18903733,33.1417888 3.48170808,33.1814843 C3.02709452,33.2074917 2.32800599,33.2471873 1.94343863,33.3156278 C1.82806842,33.98087 1.77038332,34.6556939 1.77038332,35.3277802 C1.77038332,40.1720028 5.9731552,45.2393416 13.0134848,48.8817481 L13.4021726,49.0829633 L14.8291922,57.2383401 L17.3165189,57.2383401 L18.3369959,51.1389176 L19.3025346,51.433212 C22.7032089,52.4680333 26.2274941,53.0141889 29.4935697,53.0141889 C33.5260332,53.0141889 37.5117992,52.288719 41.0209764,50.918539 L42.0400799,50.520215 L43.1443376,57.2369713 Z" id="Shape"></path>
            <path d="M37.0984131,26 C36.9191908,26 36.7371681,25.9459459 36.5789484,25.8321479 C34.803527,24.5618777 32.1767996,23.8321479 29.3708498,23.8321479 C26.7035172,23.8321479 24.1608002,24.5035562 22.3937799,25.6728307 C21.9765279,25.9502134 21.4178583,25.829303 21.1462244,25.4054054 C20.8745906,24.9815078 20.9922052,24.4139403 21.4094572,24.1379801 C23.4915168,22.7596017 26.3198694,22 29.3708498,22 C32.5394448,22 35.5456196,22.8506401 37.6178779,24.3342817 C38.0253287,24.625889 38.1219407,25.197724 37.834905,25.6102418 C37.6612833,25.8648649 37.3826486,26 37.0984131,26 Z" id="Shape"></path>
            <path d="M30.5,15 C26.3652808,15 23,11.6360691 23,7.5 C23,3.36393089 26.3639309,0 30.5,0 C34.6360691,0 38,3.36393089 38,7.5 C38,11.6360691 34.6360691,15 30.5,15 Z M30.5,1.7400108 C27.3237041,1.7400108 24.7400108,4.3237041 24.7400108,7.5 C24.7400108,10.6762959 27.3237041,13.2599892 30.5,13.2599892 C33.6762959,13.2599892 36.2599892,10.6762959 36.2599892,7.5 C36.2599892,4.3237041 33.6762959,1.7400108 30.5,1.7400108 Z" id="Shape"></path>
            <path d="M49.5396261,27 C49.2777408,27 49.0480875,26.7987457 49.0064544,26.5167063 C48.9607924,26.2049038 49.1622426,25.9143607 49.457703,25.8647557 C49.5503701,25.8491656 50.6556605,25.6521632 51.6642547,24.961946 C50.6932645,24.362435 49.9734156,23.5545833 49.6067762,22.629097 C49.2226777,21.6554231 49.4106979,20.630727 50.1117448,19.8894876 C50.8906858,19.0660458 52.0873002,18.7755026 53.0220294,19.182263 C53.548486,19.411863 54.4294951,20.0623962 54.4294951,21.8382527 C54.4294951,22.9621587 54.0964307,23.8720548 53.5901191,24.5977041 C54.9707248,25.0257238 56.3969926,24.9661979 57.1651895,24.4418029 C57.4163308,24.2703116 57.7507383,24.3468449 57.9132415,24.6104597 C58.0757447,24.8754917 58.0032226,25.2283954 57.7520813,25.3998867 C56.6964819,26.1212841 54.8995457,26.2219112 53.1711026,25.656415 C53.0327734,25.611062 52.8984732,25.5628743 52.7655161,25.5104348 C51.7502068,26.3976544 50.4864422,26.8511852 49.6215492,26.9929136 C49.5946891,26.9985827 49.5664861,27 49.5396261,27 Z M52.1262473,20.1431814 C51.6884287,20.1431814 51.2103201,20.3444357 50.8772557,20.695922 C50.5992544,20.9892998 50.3266251,21.4881836 50.6046264,22.1911563 C50.9188888,22.9862525 51.6038196,23.677887 52.5425778,24.1696844 C53.0153144,23.5956845 53.3483788,22.8374377 53.3483788,21.83967 C53.3483788,21.2557491 53.2194506,20.5045887 52.6083849,20.2381394 C52.4619977,20.1743616 52.2981515,20.1431814 52.1262473,20.1431814 Z" id="Shape"></path>
            <circle id="Oval" cx="13.5" cy="32.5" r="1.5"></circle>
        </g>
    </g>
</svg>