<?xml version="1.0" encoding="UTF-8"?>
<svg width="60px" height="60px" viewBox="0 0 60 60" version="1.1" xmlns="http://www.w3.org/2000/svg" xmlns:xlink="http://www.w3.org/1999/xlink">
    <!-- Generator: Sketch 50.2 (55047) - http://www.bohemiancoding.com/sketch -->
    <title>roomupgrade</title>
    <desc>Created with Sketch.</desc>
    <defs></defs>
    <g id="roomupgrade" stroke="none" stroke-width="1" fill="none" fill-rule="evenodd">
        <g id="RoomUpgrade" transform="translate(2.000000, 0.000000)" fill="#000000" fill-rule="nonzero">
            <path d="M42.8985,29.511 L12.147,29.511 L12.147,0.3855 L42.8985,0.3855 L42.8985,29.511 Z M13.956,27.702 L41.088,27.702 L41.088,2.1945 L13.956,2.1945 L13.956,27.702 Z" id="Shape"></path>
            <path d="M27.5235,29.511 C27.024,29.511 26.619,29.106 26.619,28.6065 L26.619,1.6155 C26.619,1.116 27.024,0.711 27.5235,0.711 C28.023,0.711 28.428,1.116 28.428,1.6155 L28.428,28.6065 C28.428,29.106 28.023,29.511 27.5235,29.511 Z" id="Shape"></path>
            <path d="M41.0175,16.0155 L14.0265,16.0155 C13.527,16.0155 13.122,15.6105 13.122,15.111 C13.122,14.6115 13.527,14.2065 14.0265,14.2065 L41.0175,14.2065 C41.517,14.2065 41.922,14.6115 41.922,15.111 C41.922,15.6105 41.5185,16.0155 41.0175,16.0155 Z" id="Shape"></path>
            <path d="M3.2835,33.849 C1.7355,33.849 0.477,32.5905 0.477,31.0425 C0.477,29.4945 1.7355,28.236 3.2835,28.236 C4.8315,28.236 6.09,29.4945 6.09,31.0425 C6.09,32.5905 4.83,33.849 3.2835,33.849 Z M3.2835,30.4065 C2.934,30.4065 2.649,30.6915 2.649,31.0425 C2.649,31.3935 2.934,31.6785 3.2835,31.6785 C3.633,31.6785 3.9195,31.3935 3.9195,31.0425 C3.9195,30.6915 3.633,30.4065 3.2835,30.4065 Z" id="Shape"></path>
            <path d="M52.398,33.6675 C50.9505,33.6675 49.773,32.49 49.773,31.0425 C49.773,29.595 50.9505,28.4175 52.398,28.4175 C53.8455,28.4175 55.023,29.595 55.023,31.0425 C55.023,32.49 53.8455,33.6675 52.398,33.6675 Z M52.398,30.2265 C51.948,30.2265 51.582,30.5925 51.582,31.0425 C51.582,31.4925 51.948,31.8585 52.398,31.8585 C52.848,31.8585 53.214,31.4925 53.214,31.0425 C53.214,30.5925 52.848,30.2265 52.398,30.2265 Z" id="Shape"></path>
            <path d="M53.181,55.563 L2.5005,55.563 L2.307,54.918 C1.2135,51.27 0.6585,47.463 0.6585,43.602 C0.6585,39.8175 1.191,36.0855 2.241,32.508 L2.4315,31.8585 L53.25,31.8585 L53.4405,32.508 C54.4905,36.087 55.023,39.819 55.023,43.602 C55.023,47.463 54.468,51.27 53.3745,54.918 L53.181,55.563 Z M3.852,53.754 L51.828,53.754 C52.7475,50.472 53.2125,47.0595 53.2125,43.602 C53.2125,40.2195 52.767,36.882 51.888,33.6675 L3.792,33.6675 C2.9115,36.8805 2.466,40.2195 2.466,43.602 C2.4675,47.0595 2.9325,50.472 3.852,53.754 Z" id="Shape"></path>
            <g id="Group" transform="translate(7.500000, 31.500000)">
                <path d="M1.398,24.063 C0.8985,24.063 0.4935,23.658 0.4935,23.1585 L0.4935,1.371 C0.4935,0.8715 0.8985,0.4665 1.398,0.4665 C1.8975,0.4665 2.3025,0.8715 2.3025,1.371 L2.3025,23.1585 C2.3025,23.658 1.8975,24.063 1.398,24.063 Z" id="Shape"></path>
                <path d="M7.7115,24.063 C7.212,24.063 6.807,23.658 6.807,23.1585 L6.807,1.371 C6.807,0.8715 7.212,0.4665 7.7115,0.4665 C8.211,0.4665 8.616,0.8715 8.616,1.371 L8.616,23.1585 C8.616,23.658 8.211,24.063 7.7115,24.063 Z" id="Shape"></path>
                <path d="M14.0265,24.063 C13.527,24.063 13.122,23.658 13.122,23.1585 L13.122,1.371 C13.122,0.8715 13.527,0.4665 14.0265,0.4665 C14.526,0.4665 14.931,0.8715 14.931,1.371 L14.931,23.1585 C14.931,23.658 14.526,24.063 14.0265,24.063 Z" id="Shape"></path>
                <path d="M20.3415,24.063 C19.842,24.063 19.437,23.658 19.437,23.1585 L19.437,1.371 C19.437,0.8715 19.842,0.4665 20.3415,0.4665 C20.841,0.4665 21.246,0.8715 21.246,1.371 L21.246,23.1585 C21.246,23.658 20.841,24.063 20.3415,24.063 Z" id="Shape"></path>
                <path d="M26.655,24.063 C26.1555,24.063 25.7505,23.658 25.7505,23.1585 L25.7505,1.371 C25.7505,0.8715 26.1555,0.4665 26.655,0.4665 C27.1545,0.4665 27.5595,0.8715 27.5595,1.371 L27.5595,23.1585 C27.5595,23.658 27.1545,24.063 26.655,24.063 Z" id="Shape"></path>
                <path d="M32.9685,24.063 C32.469,24.063 32.064,23.658 32.064,23.1585 L32.064,1.371 C32.064,0.8715 32.469,0.4665 32.9685,0.4665 C33.468,0.4665 33.873,0.8715 33.873,1.371 L33.873,23.1585 C33.873,23.658 33.4695,24.063 32.9685,24.063 Z" id="Shape"></path>
                <path d="M39.2835,24.063 C38.784,24.063 38.379,23.658 38.379,23.1585 L38.379,1.371 C38.379,0.8715 38.784,0.4665 39.2835,0.4665 C39.783,0.4665 40.188,0.8715 40.188,1.371 L40.188,23.1585 C40.188,23.658 39.783,24.063 39.2835,24.063 Z" id="Shape"></path>
            </g>
            <path d="M53.3025,59.6145 L2.268,59.6145 L2.268,53.754 L53.3025,53.754 L53.3025,59.6145 Z M4.077,57.8055 L51.4935,57.8055 L51.4935,55.563 L4.077,55.563 L4.077,57.8055 Z" id="Shape"></path>
        </g>
    </g>
</svg>