<?xml version="1.0" encoding="UTF-8"?>
<svg width="60px" height="60px" viewBox="0 0 60 60" version="1.1" xmlns="http://www.w3.org/2000/svg" xmlns:xlink="http://www.w3.org/1999/xlink">
    <!-- Generator: Sketch 50.2 (55047) - http://www.bohemiancoding.com/sketch -->
    <title>rose</title>
    <desc>Created with Sketch.</desc>
    <defs></defs>
    <g id="rose" stroke="none" stroke-width="1" fill="none" fill-rule="evenodd">
        <g id="Page-1" transform="translate(7.000000, 1.000000)" fill="#000000" fill-rule="nonzero">
            <path d="M44.5157276,38.8849658 L41.656972,41.7462992 C41.2664372,42.1371862 40.6329035,42.1372575 40.2422806,41.7464586 L37.381111,38.8839977 C36.2845924,37.7834846 36.2845924,36.0034064 37.3823954,34.9036043 C38.3523557,33.933644 39.8542857,33.8194339 40.949522,34.5609739 C42.0444011,33.8195157 43.5451174,33.9336188 44.5150879,34.9032832 C45.6162182,36.0027618 45.6161111,37.7845824 44.5157276,38.8849658 Z M43.1011954,37.471071 C43.4207418,37.1515246 43.4207418,36.6367849 43.101838,36.3184598 C42.7828308,35.9994533 42.2675958,35.9994533 41.9492312,36.3178179 C41.901115,36.3659341 41.857195,36.4243972 41.818289,36.4926421 C41.434627,37.165623 40.4644663,37.165623 40.0808043,36.4926421 C40.0418984,36.4243972 39.9979783,36.3659341 39.9498621,36.3178179 C39.6314975,35.9994533 39.1149736,35.9994533 38.7972521,36.3171742 C38.479212,36.6357936 38.479212,37.1525154 38.7967683,37.4712303 L40.9493873,39.6248194 L43.1011954,37.471071 Z" id="Stroke-1"></path>
            <path d="M6.95770234,-0.175182337 C8.05711552,0.924230844 8.05711552,2.70579582 6.95802078,3.80489042 L4.09797634,6.66751264 C3.70731709,7.05852399 3.07353772,7.05845257 2.68296661,6.66735318 L-0.175311226,3.805209 C-1.27472441,2.70579582 -1.27472441,0.924230844 -0.175954342,-0.174538635 C0.792901264,-1.14515901 2.2948835,-1.2593658 3.39150285,-0.517601173 C4.48652974,-1.25937452 5.98764977,-1.14523491 6.95770234,-0.175182337 Z M3.39071058,4.54571384 L5.54348877,2.39099544 C5.86185337,2.07263084 5.86185337,1.55739582 5.54348877,1.23903123 C5.22512418,0.920666628 4.70988916,0.920666628 4.38765009,1.24288458 C4.34100089,1.28902672 4.29876359,1.34511002 4.25780421,1.41645863 C3.8703385,2.09139889 2.89434575,2.08454748 2.51639383,1.40423404 C2.48231535,1.34289277 2.44107343,1.28794922 2.39279797,1.23967317 C2.07321171,0.920666921 1.55668838,0.920666921 1.23890234,1.23903123 C0.92053774,1.55739582 0.92053774,2.07263084 1.23938006,2.39147348 L3.39071058,4.54571384 Z" id="Stroke-3"></path>
            <path d="M11.2249333,11.0185333 L11.2249333,9.01853333 L34.7368444,9.01853333 C35.2891292,9.01853333 35.7368444,9.46624858 35.7368444,10.0185333 L35.7368444,21.5528 C35.7368444,26.692297 32.6677629,31.2655596 28.0274082,33.2679829 C27.2421875,33.6068243 26.4215385,32.8676099 26.676774,32.0513747 C27.1639806,30.4933026 27.4148444,28.8672656 27.4148444,27.2084444 C27.4148444,18.2672304 20.165772,11.0185333 11.2249333,11.0185333 Z M29.4148444,27.2084444 C29.4148444,28.2764324 29.322133,29.3328854 29.1398206,30.3699092 C31.9665944,28.3948898 33.7368444,25.1372532 33.7368444,21.5528 L33.7368444,11.0185333 L19.5251305,11.0185333 C25.3972052,14.03523 29.4148444,20.1527888 29.4148444,27.2084444 Z M11.2249333,11.0185333 C9.8916,11.0185333 9.8916,9.01853333 11.2249333,9.01853333 C14.2149589,9.01853333 17.036575,9.74007259 19.5251305,11.0185333 L11.2249333,11.0185333 Z" id="Stroke-5"></path>
            <path d="M10.2249333,10.0185333 C10.2249333,9.46624858 10.6726486,9.01853333 11.2249333,9.01853333 C21.2703183,9.01853333 29.4148444,17.1626377 29.4148444,27.2084444 C29.4148444,29.0707454 29.1329411,30.8979728 28.585626,32.6482697 C28.4986365,32.9264598 28.2946017,33.1528509 28.0269208,33.2681931 C26.442074,33.9510946 24.7344285,34.3087556 22.9808889,34.3087556 C15.9356101,34.3087556 10.2249333,28.5976463 10.2249333,21.5528 L10.2249333,10.0185333 Z M12.2249333,21.5528 C12.2249333,27.4931107 17.0402135,32.3087556 22.9808889,32.3087556 C24.3042659,32.3087556 25.5950636,32.0676122 26.8095377,31.6043729 C27.2094907,30.1832705 27.4148444,28.7092758 27.4148444,27.2084444 C27.4148444,18.6030626 20.7000961,11.5654436 12.2249333,11.0489173 L12.2249333,21.5528 Z" id="Stroke-7"></path>
            <path d="M21.9810178,33.3092711 C21.9810178,32.7569864 22.428733,32.3092711 22.9810178,32.3092711 C23.5333025,32.3092711 23.9810178,32.7569864 23.9810178,33.3092711 L23.9810178,57.3831378 C23.9810178,57.9354225 23.5333025,58.3831378 22.9810178,58.3831378 C22.428733,58.3831378 21.9810178,57.9354225 21.9810178,57.3831378 L21.9810178,33.3092711 Z" id="Stroke-9"></path>
            <path d="M31.4093383,49.1932718 C30.369068,48.515616 29.2879205,48.1161067 28.2386533,48.1161067 C25.8203232,48.1161067 23.9812756,48.983153 23.9812756,49.59464 C23.9812756,50.2056785 25.8198615,51.0718844 28.2386533,51.0718844 C29.2880241,51.0718844 30.3692312,50.6725609 31.4095376,49.9952339 C31.6083308,49.8658029 31.797703,49.7312399 31.9763435,49.5944335 C31.7976439,49.457503 31.6082047,49.3228179 31.4093383,49.1932718 Z M34.2197228,50.2834093 C33.8758719,50.6453378 33.2873764,51.1591575 32.5007913,51.6712905 C31.1630977,52.5422414 29.7290381,53.0718844 28.2386533,53.0718844 C24.8489557,53.0718844 21.9812756,51.7208453 21.9812756,49.59464 C21.9812756,47.4683915 24.8495377,46.1161067 28.2386533,46.1161067 C29.7291417,46.1161067 31.1632609,46.6460473 32.5009906,47.5174749 C33.2875737,48.029873 33.8760603,48.5439523 34.2199017,48.906059 C34.5864248,49.2920525 34.5863462,49.8975111 34.2197228,50.2834093 Z" id="Stroke-11"></path>
            <path d="M14.5517623,45.0392859 C15.5922418,45.7169632 16.6737573,46.1164933 17.72364,46.1164933 C20.1419702,46.1164933 21.9810178,45.249447 21.9810178,44.63796 C21.9810178,44.026473 20.1419702,43.1594267 17.72364,43.1594267 C16.6737573,43.1594267 15.5922418,43.5589568 14.5517623,44.2366341 C14.3527821,44.3662324 14.1632438,44.5009734 13.9844609,44.63796 C14.1632438,44.7749466 14.3527821,44.9096876 14.5517623,45.0392859 Z M23.9810178,44.63796 C23.9810178,46.7642085 21.1127557,48.1164933 17.72364,48.1164933 C16.2326393,48.1164933 14.7981632,47.5865735 13.4602399,46.7151674 C12.6735104,46.2027607 12.0849612,45.6886658 11.7411028,45.326541 C11.3746487,44.9406203 11.3746487,44.3352997 11.7411028,43.949379 C12.0849612,43.5872542 12.6735104,43.0731593 13.4602399,42.5607526 C14.7981632,41.6893465 16.2326393,41.1594267 17.72364,41.1594267 C21.1127557,41.1594267 23.9810178,42.5117115 23.9810178,44.63796 Z" id="Stroke-13"></path>
        </g>
    </g>
</svg>