<?xml version="1.0" encoding="UTF-8"?>
<svg width="60px" height="60px" viewBox="0 0 60 60" version="1.1" xmlns="http://www.w3.org/2000/svg" xmlns:xlink="http://www.w3.org/1999/xlink">
    <!-- Generator: Sketch 50.2 (55047) - http://www.bohemiancoding.com/sketch -->
    <title>suitcase</title>
    <desc>Created with Sketch.</desc>
    <defs></defs>
    <g id="suitcase" stroke="none" stroke-width="1" fill="none" fill-rule="evenodd">
        <g id="Suitcase" transform="translate(0.000000, 5.000000)" fill="#000000" fill-rule="nonzero">
            <path d="M51.249,50.3895 L8.751,50.3895 C4.2825,50.3895 0.6465,46.7535 0.6465,42.285 L0.6465,16.0575 C0.6465,11.589 4.2825,7.953 8.751,7.953 L51.2475,7.953 C55.716,7.953 59.352,11.589 59.352,16.0575 L59.352,42.285 C59.3535,46.7535 55.7175,50.3895 51.249,50.3895 Z M8.751,10.143 C5.49,10.143 2.8365,12.7965 2.8365,16.0575 L2.8365,42.285 C2.8365,45.546 5.49,48.1995 8.751,48.1995 L51.2475,48.1995 C54.5085,48.1995 57.162,45.546 57.162,42.285 L57.162,16.0575 C57.162,12.7965 54.5085,10.143 51.2475,10.143 L8.751,10.143 Z" id="Shape"></path>
            <path d="M39.789,9.048 L37.599,9.048 L37.599,7.8885 C37.599,5.0835 35.3175,2.802 32.5125,2.802 L27.489,2.802 C24.684,2.802 22.401,5.0835 22.401,7.8885 L22.401,9.048 L20.211,9.048 L20.211,7.8885 C20.211,3.876 23.4765,0.6105 27.489,0.6105 L32.5125,0.6105 C36.525,0.6105 39.7905,3.876 39.7905,7.8885 L39.7905,9.048 L39.789,9.048 Z" id="Shape"></path>
            <g id="Group" transform="translate(9.000000, 7.500000)">
                <polygon id="Shape" points="9.909 42.8895 1.0665 42.8895 1.0665 0.453 9.909 0.453 9.909 2.643 3.2565 2.643 3.2565 40.6995 9.909 40.6995"></polygon>
                <polygon id="Shape" points="40.935 42.8895 32.091 42.8895 32.091 40.6995 38.7435 40.6995 38.7435 2.643 32.091 2.643 32.091 0.453 40.935 0.453"></polygon>
            </g>
            <path d="M26.4675,37.569 L18.6045,29.706 C18.177,29.2785 18.177,28.5855 18.6045,28.1595 C19.032,27.7335 19.725,27.732 20.151,28.1595 L26.4675,34.476 L39.849,21.0945 C40.2765,20.667 40.9695,20.667 41.3955,21.0945 C41.823,21.522 41.823,22.215 41.3955,22.641 L26.4675,37.569 Z" id="Shape"></path>
        </g>
    </g>
</svg>