<?xml version="1.0" encoding="UTF-8"?>
<svg width="60px" height="60px" viewBox="0 0 60 60" version="1.1" xmlns="http://www.w3.org/2000/svg" xmlns:xlink="http://www.w3.org/1999/xlink">
    <!-- Generator: Sketch 50.2 (55047) - http://www.bohemiancoding.com/sketch -->
    <title>suitcase</title>
    <desc>Created with Sketch.</desc>
    <defs></defs>
    <g id="suitcase" stroke="none" stroke-width="1" fill="none" fill-rule="evenodd">
        <g id="Suitcase" transform="translate(0.000000, 4.000000)" fill="#000000" fill-rule="nonzero">
            <path d="M51.7183224,52 L8.2832102,52 C3.71617648,52 0,48.1443569 0,43.4059241 L0,15.5940759 C0,10.8556431 3.71617648,7 8.2832102,7 L51.7167893,7 C56.283823,7 59.9999995,10.8556431 59.9999995,15.5940759 L59.9999995,43.4059241 C60.0015326,48.1443569 56.2853561,52 51.7183224,52 Z M8.2832102,9.32229331 C4.95030274,9.32229331 2.23829111,12.1360857 2.23829111,15.5940759 L2.23829111,43.4059241 C2.23829111,46.8639143 4.95030274,49.6777067 8.2832102,49.6777067 L51.7167893,49.6777067 C55.0496968,49.6777067 57.7617084,46.8639143 57.7617084,43.4059241 L57.7617084,15.5940759 C57.7617084,12.1360857 55.0496968,9.32229331 51.7167893,9.32229331 L8.2832102,9.32229331 Z" id="Shape"></path>
            <path d="M39.9984678,9 L37.7614342,9 L37.7614342,7.7632 C37.7614342,4.7712 35.4309354,2.3376 32.5656937,2.3376 L27.4343063,2.3376 C24.5690646,2.3376 22.2370336,4.7712 22.2370336,7.7632 L22.2370336,9 L20,9 L20,7.7632 C20,3.4832 23.3356317,0 27.4343063,0 L32.5656937,0 C36.6643683,0 40,3.4832 40,7.7632 L40,9 L39.9984678,9 Z" id="Shape"></path>
            <g id="Group" transform="translate(9.000000, 7.000000)">
                <polyline id="Shape" points="0.069825 44.8843605 0.069825 0.474069767 9.35445 0.474069767 9.35445 1.36442456 2.369325 1.32256832 2.369325 44.7640511"></polyline>
                <polyline id="Shape" points="39.630675 44.9310353 39.630675 1.20507386 32.64555 1.20507386 32.64555 0.474069767 41.93175 0.474069767 41.93175 44.8843605"></polyline>
            </g>
            <path d="M26.3819095,37 L18.3283936,29.0410834 C17.8905355,28.6083685 17.8905355,27.906915 18.3283936,27.4757184 C18.7662516,27.0445218 19.4760426,27.0430036 19.9123644,27.4757184 L26.3819095,33.8692701 L40.0876356,20.3245361 C40.5254937,19.8918213 41.2352847,19.8918213 41.6716064,20.3245361 C42.1094645,20.757251 42.1094645,21.4587045 41.6716064,21.8899011 L26.3819095,37 Z" id="Shape"></path>
        </g>
    </g>
</svg>