<?xml version="1.0" encoding="UTF-8"?>
<svg width="60px" height="60px" viewBox="0 0 60 60" version="1.1" xmlns="http://www.w3.org/2000/svg" xmlns:xlink="http://www.w3.org/1999/xlink">
    <!-- Generator: Sketch 50.2 (55047) - http://www.bohemiancoding.com/sketch -->
    <title>wine</title>
    <desc>Created with Sketch.</desc>
    <defs></defs>
    <g id="wine" stroke="none" stroke-width="1" fill="none" fill-rule="evenodd">
        <g id="Glassofwine" transform="translate(13.000000, 0.000000)" fill="#000000" fill-rule="nonzero">
            <rect id="Rectangle-path" x="15.728" y="24.1013333" width="1.87733333" height="26.9586667"></rect>
            <path d="M26.2573333,59.7746667 L7.076,59.7746667 L7.076,57.8973333 C11.8466667,57.8973333 15.728,54.016 15.728,49.2453333 L17.6053333,49.2453333 C17.6053333,54.016 21.4866667,57.8973333 26.2573333,57.8973333 L26.2573333,59.7746667 Z M13.0706667,57.8973333 L20.2626667,57.8973333 C18.708,56.8173333 17.4573333,55.3293333 16.6666667,53.5893333 C15.876,55.328 14.624,56.816 13.0706667,57.8973333 Z" id="Shape"></path>
            <g id="Group">
                <path d="M29.2666667,14.7226667 C25.032,14.7226667 20.816,13.988 16.7026667,12.5306667 C11.1853333,10.5746667 6.11733333,10.3853333 1.64,11.9653333 L0.582666667,12.3386667 L0.401333333,11.232 C0.256,10.3413333 0.182666667,9.44 0.182666667,8.55466667 C0.182666667,5.82 0.866666667,3.10933333 2.16266667,0.717333333 L2.42933333,0.225333333 L30.9066667,0.225333333 L31.1733333,0.717333333 C32.468,3.10933333 33.1533333,5.82 33.1533333,8.55466667 C33.1533333,10.428 32.8386667,12.272 32.216,14.036 L32.008,14.6253333 L31.3853333,14.6613333 C30.6773333,14.7013333 29.972,14.7226667 29.2666667,14.7226667 Z M7.98,9.02666667 C10.9453333,9.02666667 14.0706667,9.60533333 17.3293333,10.76 C21.684,12.3026667 26.1533333,12.9973333 30.6386667,12.8173333 C31.06,11.436 31.2733333,10.0053333 31.2733333,8.55466667 C31.2733333,6.316 30.756,4.09733333 29.7746667,2.10266667 L3.55866667,2.10266667 C2.576,4.09733333 2.06,6.316 2.06,8.55466667 C2.06,8.98 2.08,9.41066667 2.11733333,9.84 C3.992,9.29866667 5.94933333,9.02666667 7.98,9.02666667 Z" id="Shape"></path>
                <path d="M16.6666667,25.04 C8.54933333,25.04 1.70933333,19.2333333 0.401333333,11.232 L0.274666667,10.456 L1.01466667,10.1946667 C5.908,8.468 11.3986667,8.65866667 17.3293333,10.76 C21.8893333,12.376 26.58,13.06 31.2733333,12.7866667 L32.6813333,12.7053333 L32.212,14.036 C29.8933333,20.6173333 23.6453333,25.04 16.6666667,25.04 Z M2.404,11.7133333 C3.86666667,18.3933333 9.74266667,23.1613333 16.6666667,23.1613333 C22.3773333,23.1613333 27.536,19.82 29.912,14.716 C25.4493333,14.788 21.0253333,14.06 16.7026667,12.5293333 C11.4973333,10.6853333 6.692,10.412 2.404,11.7133333 Z" id="Shape"></path>
            </g>
        </g>
    </g>
</svg>